<?xml version="1.0" encoding="utf-8"?>
<!-- Generator: Adobe Illustrator 22.0.0, SVG Export Plug-In . SVG Version: 6.00 Build 0)  -->
<svg version="1.1" id="Layer_1" xmlns="http://www.w3.org/2000/svg" xmlns:xlink="http://www.w3.org/1999/xlink" x="0px" y="0px"
	 viewBox="0 0 191.7 65" style="enable-background:new 0 0 191.7 65;" xml:space="preserve">
<style type="text/css">
	.st0{fill:#BBBDBF;}
	.st1{fill:#F48120;}
	.st2{fill:#FFFFFF;}
</style>
<path class="st0" d="M60.9,6.2l-0.1,0l-0.2,0l-0.1,0l-0.1,0l-0.1,0l-0.1,0l-0.1,0l-0.1,0l-0.1,0l-0.1,0l-0.1,0l-0.1,0l-0.1,0l-0.1,0
	l-0.1,0l-0.1,0l-0.1,0l-0.1,0l-0.1,0l-0.1,0l-0.1,0l-0.1,0l-0.1,0l-0.1,0l-0.1,0l-0.1,0l-0.1,0l-0.1,0l-0.1,0l-0.1,0l-0.1,0l-0.1,0
	l-0.1,0l-0.1,0l-0.1,0l-0.1,0l-0.1,0l-0.1,0l-0.1,0l-0.1,0l-0.1,0l-0.1,0l-0.1,0l-0.1,0l-0.1,0l-0.1,0l-0.1,0l-0.1,0l-0.1,0l-0.1,0
	l-0.1,0l-0.1,0l-0.1,0l-0.1,0l-0.1,0l-0.1,0l-0.1,0l-0.1,0l-0.1,0l-0.1,0l-0.1,0l-0.1,0l-0.1,0l-0.1,0l-0.1,0l-0.1,0l-0.1,0l-0.1,0
	l-0.1,0l-0.1,0l-0.1,0l-0.1,0l-0.1,0l-0.1,0l-0.1,0l-0.1,0l-0.1,0l-0.1,0l-0.1,0l0,0l0,0l0,0.1l0,0.1l0,0.1l0,0.1l0,0.1l0.1,0l0.1,0
	l0.2,0l0.1,0l0.1,0l0.1,0l0.1,0l0.1,0l0.1,0l0.1,0l0.1,0l0.1,0l0.1,0l0.1,0l0.1,0l0.1,0l0.1,0l0.1,0l0.1,0l0,0l0,0l0,0l0,0l0.1,0
	l0,0l0,0l0,0l0,0l0,0l0,0l0,0l0,0l0.1,0l0,0l0,0l0,0l0.1,0l0,0l0.2,0l0.1,0l0.1,0l0.1,0l0.1,0l0.1,0l0.1,0l0.1,0l0.1,0l0.1,0l0.2,0
	l0.2,0l0.1,0l0.2,0l0.1,0l0.1,0l0.1,0l0.1,0l0.1,0l0.1,0l0.1,0l0.1,0l0.1,0l0.1,0l0.1,0l0.1,0l0.1,0l0.1,0l0.1,0l0.1,0l0.1,0l0.1,0
	l0.1,0l0.1,0l0,0l0.1,0l0,0l0.1,0l0.1,0l0-0.2l0-0.1l-0.1-0.1l0,0l0.1,0l0.1,0l0.1,0l0-0.1l0-0.1l0-0.1l0-0.1l0-0.1l-0.2,0l-0.1,0
	l-0.1,0l0.1,0l0.1,0l0,0l0.1,0l0.1,0l0.1,0l0.1,0l0.1,0l0.1,0l0,0l0.1,0l0.1,0l0.1,0l0.1,0l0.1,0l0.1,0l0,0l0.1,0l0.1,0l0.1,0l0.1,0
	l0.1,0l0.1,0l0.1,0l0-0.2l0-0.1l0-0.1l0-0.1l-0.1,0L60.9,6.2z M59.6,7.7L59.6,7.7L59.6,7.7z M59.5,7.7L59.5,7.7L59.5,7.7z"/>
<polygon class="st0" points="59.2,12 59,12 58.8,12.1 58.6,12.1 58.5,12.2 58.4,12.2 58.3,12.2 58.2,12.3 58.1,12.3 58,12.4 
	57.9,12.4 57.7,12.5 57.6,12.5 57.3,12.6 57.2,12.6 57,12.7 56.8,12.7 56.7,12.8 56.5,12.8 56.3,12.9 56.2,12.9 56,12.9 55.9,13 
	55.7,13 55.6,13.1 55.4,13.1 55.3,13.2 55.1,13.2 55,13.3 54.9,13.3 54.7,13.4 54.6,13.4 54.5,13.5 54.4,13.5 54.3,13.5 54.1,13.6 
	54,13.6 53.9,13.7 53.7,13.7 53.7,13.8 53.5,13.8 53.4,13.9 53.3,13.9 53.2,14 53.1,14 53,14 52.9,14.1 52.7,14.1 52.7,14.2 
	52.5,14.2 52.4,14.3 52.3,14.3 52.2,14.4 52.1,14.4 52,14.4 51.9,14.5 51.8,14.5 51.7,14.6 51.6,14.6 51.5,14.7 51.4,14.7 
	51.3,14.8 51.3,14.8 51.1,14.9 51.1,14.9 51,14.9 50.9,15 50.8,15 50.7,15.1 50.6,15.1 50.5,15.2 50.4,15.2 50.3,15.2 50.3,15.3 
	50.2,15.3 50.1,15.4 50,15.4 49.9,15.5 49.8,15.5 49.7,15.6 49.7,15.6 49.6,15.6 49.5,15.7 49.4,15.7 49.4,15.8 49.3,15.8 
	49.2,15.9 49.1,15.9 49.1,15.9 49,16 48.9,16 48.8,16.1 48.8,16.1 48.7,16.2 48.6,16.2 48.5,16.3 48.5,16.3 48.4,16.3 48.3,16.4 
	48.2,16.4 48.2,16.5 48.1,16.5 48,16.6 48,16.6 47.9,16.6 47.8,16.7 47.8,16.7 47.7,16.8 47.6,16.8 47.6,16.9 47.5,16.9 47.4,16.9 
	47.4,17 47.3,17 47.2,17.1 47.2,17.1 47.1,17.2 47.1,17.2 47,17.3 46.9,17.3 46.9,17.3 46.8,17.4 46.7,17.4 46.7,17.5 46.6,17.5 
	46.5,17.6 46.5,17.6 46.4,17.6 46.3,17.7 46.3,17.7 46.2,17.8 46.1,17.8 46.1,17.9 46,17.9 45.9,17.9 45.9,18 45.8,18 45.7,18.1 
	45.7,18.1 45.6,18.2 45.6,18.2 45.5,18.2 45.5,18.3 45.4,18.3 45.4,18.4 45.3,18.4 45.2,18.5 45.2,18.5 45.1,18.5 45,18.6 45,18.6 
	44.9,18.7 44.8,18.7 44.8,18.8 44.7,18.8 44.7,18.8 44.6,18.9 44.6,18.9 44.5,19 44.4,19 44.4,19.1 44.3,19.1 44.2,19.1 44.2,19.2 
	44.1,19.2 44.1,19.3 44,19.3 44,19.4 43.9,19.4 43.9,19.4 43.8,19.5 43.7,19.5 43.7,19.6 43.6,19.6 43.5,19.7 43.5,19.7 43.5,19.8 
	43.4,19.8 43.3,19.8 43.3,19.9 43.2,19.9 43.1,20 43.1,20 43,20.1 43,20.1 42.9,20.1 42.9,20.2 42.8,20.2 42.8,20.3 42.7,20.3 
	42.6,20.4 42.6,20.4 42.5,20.4 42.4,20.5 42.4,20.5 42.3,20.6 42.3,20.6 42.2,20.7 42.2,20.7 42.1,20.7 42,20.8 42,20.8 41.9,20.9 
	41.9,20.9 41.8,21 41.8,21 41.7,21 41.6,21.1 41.6,21.1 41.5,21.2 41.4,21.2 41.4,21.3 41.3,21.3 41.3,21.3 41.2,21.4 41.2,21.4 
	41.1,21.5 41.1,21.5 41,21.6 40.9,21.6 40.9,21.6 40.8,21.7 40.7,21.7 40.7,21.8 40.6,21.8 40.6,21.9 40.5,21.9 40.5,21.9 40.4,22 
	40.3,22 40.3,22.1 40.2,22.1 40.2,22.2 40.1,22.2 40.1,22.2 40.1,22.3 40,22.3 40,22.4 40,22.4 39.9,22.4 39.9,22.5 39.8,22.5 
	39.8,22.6 39.8,22.6 39.7,22.7 39.7,22.7 39.6,22.8 39.6,22.8 39.6,22.9 39.5,22.9 39.5,23 39.5,23 39.4,23.1 39.4,23.1 39.3,23.2 
	39.3,23.2 39.3,23.2 39.2,23.3 39.2,23.3 39.1,23.4 39.1,23.4 39.1,23.5 39,23.5 39,23.5 39,23.6 39.1,23.6 39.2,23.5 39.3,23.5 
	39.3,23.4 39.5,23.4 39.5,23.4 39.7,23.3 39.7,23.3 39.9,23.2 39.9,23.2 40.1,23.1 40.2,23.1 40.3,23 40.4,23 40.5,23 40.6,22.9 
	40.7,22.9 40.7,22.8 40.8,22.8 40.8,22.7 40.9,22.7 40.9,22.7 40.9,22.6 41,22.6 41,22.5 41.1,22.5 41.1,22.4 41.1,22.4 41.2,22.4 
	41.2,22.3 41.2,22.2 41.3,22.2 41.3,22.1 41.4,22.1 41.4,22 41.4,22 41.5,21.9 41.5,21.9 41.6,21.8 41.6,21.8 41.6,21.7 41.7,21.7 
	41.7,21.6 41.8,21.6 41.8,21.6 41.9,21.5 41.9,21.5 42,21.4 42.1,21.4 42.1,21.3 42.2,21.3 42.2,21.3 42.3,21.2 42.3,21.2 
	42.4,21.1 42.5,21.1 42.5,21 42.6,21 42.7,21 42.7,20.9 42.8,20.9 42.8,20.8 42.9,20.8 42.9,20.7 43,20.7 43.1,20.7 43.1,20.6 
	43.2,20.6 43.2,20.5 43.3,20.5 43.4,20.4 43.4,20.4 43.5,20.4 43.5,20.3 43.6,20.3 43.6,20.2 43.7,20.2 43.8,20.1 43.8,20.1 
	43.9,20.1 44,20 44,20 44.1,19.9 44.2,19.9 44.2,19.8 44.3,19.8 44.3,19.8 44.4,19.7 44.4,19.7 44.5,19.6 44.6,19.6 44.6,19.5 
	44.7,19.5 44.7,19.5 44.8,19.4 44.9,19.4 44.9,19.3 45,19.3 45.1,19.2 45.1,19.2 45.2,19.1 45.3,19.1 45.3,19.1 45.4,19 45.5,19 
	45.5,18.9 45.6,18.9 45.7,18.8 45.7,18.8 45.8,18.8 45.8,18.7 45.9,18.7 46,18.6 46,18.6 46.1,18.5 46.2,18.5 46.2,18.5 46.3,18.4 
	46.4,18.4 46.5,18.3 46.5,18.3 46.6,18.2 46.6,18.2 46.7,18.2 46.8,18.1 46.8,18.1 46.9,18 47,18 47,17.9 47.1,17.9 47.2,17.9 
	47.3,17.8 47.4,17.8 47.4,17.7 47.5,17.7 47.6,17.6 47.6,17.6 47.7,17.5 47.8,17.5 47.9,17.5 47.9,17.4 48,17.4 48.1,17.3 
	48.2,17.3 48.2,17.2 48.3,17.2 48.4,17.2 48.5,17.1 48.6,17.1 48.6,17 48.7,17 48.8,16.9 48.9,16.9 49,16.8 49.1,16.8 49.1,16.8 
	49.2,16.7 49.3,16.7 49.4,16.6 49.5,16.6 49.6,16.5 49.7,16.5 49.8,16.4 49.9,16.4 50,16.4 50.1,16.3 50.2,16.3 50.3,16.2 
	50.4,16.2 50.5,16.1 50.6,16.1 50.7,16 50.8,16 50.9,16 51,15.9 51.1,15.9 51.2,15.8 51.3,15.8 51.4,15.7 51.5,15.7 51.6,15.6 
	51.7,15.6 51.8,15.6 51.9,15.5 52.1,15.5 52.2,15.4 52.3,15.4 52.4,15.3 52.5,15.3 52.7,15.2 52.8,15.2 52.9,15.1 53,15.1 53.1,15 
	53.3,15 53.4,15 53.5,14.9 53.7,14.9 53.8,14.8 53.9,14.8 54.1,14.7 54.2,14.7 54.4,14.6 54.5,14.6 54.7,14.5 54.8,14.5 55,14.4 
	55.1,14.4 55.3,14.4 55.5,14.3 55.6,14.3 55.8,14.2 55.8,14.2 55.8,14.2 55.7,14.3 55.7,14.3 55.6,14.4 55.6,14.4 55.6,14.5 
	55.5,14.5 55.5,14.5 55.4,14.6 55.4,14.6 55.4,14.7 55.3,14.7 55.3,14.8 55.2,14.8 55.2,14.8 55.2,14.9 55.1,14.9 55.1,15 55.1,15 
	55,15.1 55,15.1 54.9,15.1 54.9,15.2 54.9,15.3 54.8,15.3 54.8,15.3 54.7,15.4 54.7,15.4 54.7,15.5 54.6,15.5 54.6,15.6 54.5,15.6 
	54.5,15.6 54.5,15.7 54.4,15.8 54.4,15.8 54.4,15.8 54.3,15.9 54.3,15.9 54.2,16 54.2,16.1 54.2,16.1 54.1,16.1 54.1,16.2 54,16.3 
	54,16.3 54,16.4 53.9,16.4 53.9,16.5 53.9,16.5 53.8,16.6 53.8,16.6 53.7,16.7 53.7,16.8 53.7,16.8 53.6,16.9 53.6,16.9 53.5,17 
	53.5,17.1 53.5,17.1 53.4,17.2 53.4,17.3 53.4,17.3 53.3,17.4 53.3,17.5 53.2,17.5 53.2,17.6 53.2,17.7 53.1,17.7 53.1,17.8 
	53.1,17.9 53,18 53,18.1 52.9,18.1 52.9,18.2 52.9,18.3 52.8,18.3 52.8,18.4 52.8,18.5 52.7,18.6 52.7,18.7 52.7,18.8 52.6,18.9 
	52.6,19 52.5,19.1 52.5,19.2 52.5,19.3 52.4,19.4 52.4,19.5 52.4,19.6 52.3,19.7 52.3,19.9 52.3,20 52.2,20.1 52.2,20.3 52.2,20.4 
	52.1,20.6 52.1,20.8 52.1,21 52,21.5 52,21.9 52.1,22.3 52.2,22.5 52.2,22.6 52.2,22.7 52.3,22.8 52.3,22.9 52.4,23 52.4,23.1 
	52.5,23.2 52.5,23.3 52.6,23.3 52.6,23.4 52.6,23.4 52.7,23.4 52.7,23.5 52.8,23.6 52.8,23.6 52.9,23.6 52.9,23.7 52.9,23.7 
	53,23.8 53,23.8 53.1,23.8 53.2,23.9 53.2,23.9 53.2,24 53.3,24 53.4,24 53.4,24.1 53.5,24.1 53.6,24.1 53.7,24.2 53.7,24.2 
	53.9,24.2 53.9,24.3 54,24.3 54.1,24.4 54.3,24.4 54.4,24.4 54.5,24.5 54.7,24.5 54.8,24.5 55,24.6 55.2,24.6 55.4,24.6 55.5,24.7 
	55.7,24.7 56,24.7 56.2,24.8 56.4,24.8 56.5,24.8 56.7,24.9 56.9,24.9 57.1,24.9 57.3,25 57.4,25 57.6,25 57.8,25.1 57.9,25.1 
	58,25.1 58.2,25.2 58.3,25.2 58.5,25.2 58.6,25.3 58.7,25.3 58.8,25.3 58.9,25.4 59,25.4 59.1,25.4 59.2,25.5 59.3,25.5 59.4,25.6 
	59.4,25.6 59.5,25.6 59.6,25.7 59.7,25.7 59.8,25.7 59.8,25.8 59.9,25.8 59.9,25.9 60,25.9 60.1,25.9 60.2,26 60.2,26 60.2,26 
	60.3,26.1 60.4,26.1 60.4,26.2 60.4,26.2 60.5,26.2 60.5,26.3 60.6,26.3 60.6,26.4 60.7,26.4 60.7,26.4 60.7,26.5 60.8,26.5 
	60.8,26.5 60.9,26.6 60.9,26.7 61,26.7 61,26.8 61,26.8 61.1,26.9 61.1,26.9 61.2,27 61.2,27.1 61.3,27.2 61.3,27.3 61.4,27.4 
	61.4,27.5 61.4,27.6 61.5,27.7 61.5,27.9 61.6,28 61.6,28.3 61.7,29.6 61.7,29.9 61.6,30.2 61.6,30.4 61.6,30.6 61.5,30.8 61.5,31 
	61.5,31.1 61.4,31.3 61.4,31.5 61.4,31.6 61.3,31.7 61.3,31.8 61.3,32 61.2,32.1 61.2,32.2 61.2,32.3 61.1,32.4 61.1,32.5 61,32.6 
	61,32.7 61,32.9 60.9,32.9 60.9,33.1 60.9,33.1 60.8,33.2 60.8,33.3 60.8,33.4 60.7,33.5 60.7,33.6 60.6,33.7 60.6,33.8 60.6,33.8 
	60.5,33.9 60.5,34 60.5,34.1 60.4,34.2 60.4,34.3 60.3,34.3 60.3,34.4 60.3,34.5 60.2,34.6 60.2,34.7 60.2,34.7 60.1,34.8 
	60.1,34.9 60,35 60,35 60,35.1 59.9,35.2 59.9,35.2 59.9,35.3 59.8,35.4 59.8,35.5 59.7,35.5 59.7,35.6 59.7,35.7 59.6,35.7 
	59.6,35.8 59.6,35.8 59.5,35.9 59.5,36 59.4,36 59.4,36.1 59.4,36.2 59.3,36.2 59.3,36.3 59.2,36.3 59.2,36.4 59.2,36.5 59.1,36.5 
	59.1,36.6 59.1,36.7 59,36.7 59,36.8 58.9,36.8 58.9,36.9 58.9,36.9 58.8,37 58.8,37 58.8,37.1 58.7,37.2 58.7,37.2 58.6,37.3 
	58.6,37.3 58.6,37.4 58.5,37.4 58.5,37.5 58.4,37.5 58.4,37.6 58.4,37.7 58.3,37.7 58.3,37.7 58.3,37.8 58.2,37.9 58.2,37.9 
	58.1,38 58.1,38 58.1,38.1 58,38.1 58,38.2 57.9,38.2 57.9,38.2 57.9,38.3 57.8,38.4 57.8,38.4 57.8,38.5 57.7,38.5 57.7,38.5 
	57.6,38.6 57.6,38.7 57.6,38.7 57.5,38.7 57.5,38.8 57.4,38.8 57.4,38.9 57.4,38.9 57.3,39 57.3,39 57.2,39 57.2,39.1 57.2,39.2 
	57.1,39.2 57.1,39.2 57.1,39.3 57,39.3 57,39.4 56.9,39.4 56.9,39.5 56.9,39.5 56.8,39.5 56.8,39.6 56.7,39.6 56.7,39.7 56.7,39.7 
	56.6,39.8 56.6,39.8 56.5,39.8 56.5,39.9 56.5,39.9 56.4,40 56.4,40 56.4,40 56.3,40.1 56.2,40.1 56.2,40.2 56.2,40.2 56.1,40.3 
	56.1,40.3 56,40.3 56,40.4 56,40.4 55.9,40.5 55.9,40.5 55.8,40.6 55.8,40.6 55.7,40.6 55.7,40.7 55.7,40.7 55.6,40.8 55.5,40.8 
	55.5,40.9 55.5,40.9 55.4,40.9 55.4,41 55.3,41 55.3,41.1 55.2,41.1 55.2,41.2 55.1,41.2 55.1,41.2 55,41.3 55,41.3 54.9,41.4 
	54.9,41.4 54.8,41.5 54.8,41.5 54.8,41.5 54.7,41.6 54.7,41.6 54.6,41.7 54.6,41.7 54.6,41.7 54.5,41.8 54.5,41.8 54.4,41.9 
	54.4,42 54.4,42 54.3,42 54.3,42.1 54.2,42.1 54.2,42.2 54.2,42.2 54.1,42.3 54.1,42.3 54.1,42.4 54,42.4 54,42.5 53.9,42.5 
	53.9,42.5 53.9,42.6 53.8,42.6 53.8,42.7 53.7,42.8 53.7,42.8 53.7,42.8 53.8,42.8 53.8,42.8 53.9,42.7 53.9,42.7 54,42.7 54,42.6 
	54.1,42.6 54.1,42.5 54.2,42.5 54.2,42.4 54.3,42.4 54.3,42.4 54.3,42.3 54.4,42.3 54.5,42.2 54.5,42.2 54.5,42.2 54.6,42.1 
	54.7,42.1 54.7,42 54.7,42 54.8,41.9 54.8,41.9 54.8,41.9 54.9,41.8 55,41.8 55,41.7 55,41.7 55.1,41.6 55.1,41.6 55.2,41.6 
	55.2,41.5 55.3,41.5 55.3,41.4 55.4,41.4 55.4,41.3 55.4,41.3 55.5,41.3 55.5,41.2 55.5,41.2 55.6,41.1 55.6,41.1 55.7,41 55.7,41 
	55.8,41 55.8,40.9 55.9,40.9 55.9,40.8 55.9,40.8 56,40.8 56,40.7 56.1,40.7 56.1,40.6 56.1,40.6 56.2,40.5 56.2,40.5 56.3,40.5 
	56.3,40.4 56.3,40.4 56.4,40.3 56.4,40.3 56.4,40.2 56.5,40.2 56.5,40.2 56.6,40.1 56.6,40.1 56.6,40 56.7,40 56.7,40 56.8,39.9 
	56.8,39.9 56.8,39.8 56.9,39.8 56.9,39.7 57,39.7 57,39.7 57,39.6 57.1,39.6 57.1,39.5 57.1,39.5 57.2,39.4 57.2,39.4 57.3,39.4 
	57.3,39.3 57.3,39.3 57.4,39.2 57.4,39.2 57.5,39.2 57.5,39.1 57.5,39.1 57.6,39 57.6,39 57.7,38.9 57.7,38.9 57.7,38.8 57.8,38.8 
	57.8,38.7 57.8,38.7 57.9,38.6 57.9,38.6 58,38.6 58,38.5 58,38.4 58.1,38.4 58.1,38.4 58.2,38.3 58.2,38.3 58.2,38.2 58.3,38.2 
	58.3,38.1 58.3,38.1 58.4,38 58.4,38 58.5,37.9 58.5,37.9 58.5,37.9 58.6,37.8 58.6,37.7 58.7,37.7 58.7,37.6 58.7,37.6 58.8,37.5 
	58.8,37.5 58.8,37.4 58.9,37.4 58.9,37.4 59,37.3 59,37.2 59,37.2 59.1,37.1 59.1,37.1 59.2,37 59.2,37 59.2,36.9 59.3,36.9 
	59.3,36.8 59.3,36.8 59.4,36.7 59.4,36.6 59.5,36.6 59.5,36.6 59.5,36.5 59.6,36.4 59.6,36.4 59.7,36.3 59.7,36.3 59.7,36.2 
	59.8,36.2 59.8,36.1 59.8,36.1 59.9,36 59.9,35.9 60,35.9 60,35.8 60,35.8 60.1,35.7 60.1,35.7 60.2,35.6 60.2,35.6 60.2,35.5 
	60.3,35.4 60.3,35.4 60.3,35.3 60.4,35.3 60.4,35.2 60.5,35.1 60.5,35.1 60.5,35 60.6,35 60.6,34.9 60.7,34.8 60.7,34.8 60.7,34.7 
	60.8,34.6 60.8,34.6 60.8,34.5 60.9,34.5 60.9,34.4 61,34.3 61,34.3 61,34.2 61.1,34.1 61.1,34.1 61.1,34 61.2,33.9 61.2,33.9 
	61.3,33.8 61.3,33.7 61.3,33.6 61.4,33.6 61.4,33.5 61.4,33.4 61.5,33.4 61.5,33.3 61.6,33.2 61.6,33.2 61.6,33.1 61.7,33 
	61.7,32.9 61.7,32.9 61.8,32.8 61.8,32.7 61.9,32.7 61.9,32.6 61.9,32.5 62,32.4 62,32.3 62,32.2 62.1,32.2 62.1,32.1 62.2,32 
	62.2,31.9 62.2,31.8 62.3,31.7 62.3,31.7 62.3,31.6 62.4,31.5 62.4,31.4 62.5,31.3 62.5,31.2 62.5,31.1 62.6,31 62.6,30.9 
	62.6,30.8 62.7,30.7 62.7,30.6 62.7,30.5 62.8,30.3 62.8,30.3 62.9,30.1 62.9,30 62.9,29.9 63,29.7 63,29.6 63,29.4 63.1,29.3 
	63.1,29.1 63.1,28.9 63.2,28.7 63.2,28.5 63.2,28.1 63.2,26.9 63.1,26.6 63.1,26.4 63,26.2 63,26.1 62.9,26 62.9,25.9 62.8,25.8 
	62.8,25.7 62.7,25.6 62.7,25.5 62.7,25.5 62.6,25.4 62.6,25.3 62.5,25.3 62.5,25.2 62.4,25.1 62.4,25.1 62.3,25 62.3,25 62.3,24.9 
	62.2,24.9 62.2,24.8 62.1,24.8 62.1,24.8 62.1,24.7 62,24.7 62,24.6 61.9,24.6 61.8,24.6 61.8,24.5 61.8,24.5 61.7,24.4 61.7,24.4 
	61.6,24.4 61.5,24.3 61.5,24.3 61.4,24.3 61.4,24.2 61.3,24.2 61.2,24.1 61.2,24.1 61.1,24.1 61,24 60.9,24 60.8,24 60.8,23.9 
	60.7,23.9 60.6,23.8 60.5,23.8 60.4,23.8 60.3,23.7 60.2,23.7 60.1,23.7 59.9,23.6 59.8,23.6 59.6,23.6 59.5,23.5 59.4,23.5 
	59.2,23.5 59,23.4 58.9,23.4 58.7,23.4 58.5,23.3 58.3,23.3 58.1,23.3 57.9,23.2 57.7,23.2 57.4,23.2 57.2,23.1 57,23.1 56.7,23.1 
	56.5,23 56.4,23 56.2,23 56,22.9 55.8,22.9 55.7,22.9 55.6,22.8 55.5,22.8 55.3,22.8 55.2,22.7 55.1,22.7 55.1,22.7 55,22.6 
	54.9,22.6 54.8,22.5 54.7,22.5 54.7,22.5 54.6,22.4 54.6,22.4 54.5,22.4 54.4,22.3 54.4,22.3 54.3,22.2 54.3,22.2 54.3,22.2 
	54.2,22.1 54.2,22.1 54.1,22 54.1,22 54,21.9 54,21.9 54,21.8 53.9,21.7 53.9,21.6 53.8,21.5 53.8,21.4 53.7,21.3 53.7,21.2 
	53.6,21 53.6,20.8 53.5,20.5 53.5,19.7 53.5,19.3 53.6,19.1 53.6,18.9 53.6,18.8 53.7,18.6 53.7,18.5 53.7,18.3 53.8,18.2 
	53.8,18.1 53.8,18 53.9,17.9 53.9,17.8 53.9,17.6 54,17.6 54,17.5 54.1,17.4 54.1,17.3 54.1,17.2 54.2,17.1 54.2,17 54.2,16.9 
	54.3,16.9 54.3,16.8 54.4,16.7 54.4,16.7 54.4,16.6 54.5,16.5 54.5,16.4 54.5,16.4 54.6,16.3 54.6,16.2 54.7,16.2 54.7,16.1 
	54.7,16 54.8,16 54.8,15.9 54.8,15.9 54.9,15.8 54.9,15.7 55,15.7 55,15.6 55,15.6 55.1,15.5 55.1,15.5 55.2,15.4 55.2,15.4 
	55.2,15.3 55.3,15.3 55.3,15.2 55.3,15.2 55.4,15.1 55.4,15.1 55.5,15 55.5,15 55.5,14.9 55.6,14.9 55.6,14.9 55.7,14.8 55.7,14.8 
	55.7,14.7 55.8,14.7 55.8,14.7 55.8,14.6 55.9,14.6 55.9,14.5 56,14.5 56,14.4 56,14.4 56.1,14.4 56.2,14.3 56.2,14.3 56.2,14.2 
	56.3,14.2 56.4,14.1 56.4,14.1 56.5,14.1 56.6,14 56.8,14 57,13.9 57.2,13.9 57.4,13.8 57.6,13.8 57.9,13.7 58.1,13.7 58.4,13.6 
	58.7,13.6 59,13.5 59.4,13.4 59.8,13.4 60,13.3 60.1,13.3 60.1,13.3 60.2,13.2 60.2,13.2 60.3,13.1 60.3,13.1 60.3,13 60.4,13 
	60.4,13 60.5,12.9 60.5,12.9 60.5,12.8 60.6,12.8 60.6,12.8 60.7,12.7 60.7,12.6 60.7,12.6 60.8,12.5 60.8,12.5 60.8,12.5 
	60.9,12.4 60.9,12.3 61,12.3 61,12.2 61,12.2 61.1,12.2 61.1,12.1 61.2,12.1 61.2,12 61.2,12 61.3,11.9 61.3,11.9 61.3,11.8 
	60.8,11.9 "/>
<path class="st1" d="M85.8,1.1l-0.2,0.1l-0.3,0.1l-0.2,0.1l-0.2,0.1l-0.2,0.1l-0.2,0.1l-0.2,0.1l-0.2,0.1l-0.2,0.1l-0.2,0.1
	l-0.2,0.1L83.2,2L83,2.1l-0.2,0.1l-0.1,0.1l-0.2,0.1l-0.2,0.1l-0.1,0.1l-0.2,0.1l-0.2,0.1l-0.1,0.1l-0.2,0.1l-0.1,0.1l-0.2,0.1
	l-0.1,0.1L80.6,3L80.5,3l-0.2,0.1l-0.1,0.1l-0.2,0.1l-0.1,0.1l-0.1,0.1l-0.2,0.1l-0.1,0.1l-0.1,0.1l-0.2,0.1l-0.1,0.1l-0.1,0.1
	l-0.2,0.1L78.3,4L78.1,4L78,4.1l-0.2,0.1l-0.1,0.1l-0.1,0.1l-0.1,0.1l-0.2,0.1L77,4.5l-0.1,0.1l-0.1,0.1l-0.1,0.1l-0.2,0.1l-0.1,0.1
	l-0.1,0.1L75.9,5l-0.1,0.1l-0.1,0.1l-0.2,0.1l-0.1,0.1l-0.1,0.1L75,5.4l-0.1,0.1l-0.1,0.1l-0.1,0.1l-0.2,0.1l-0.1,0.1l-0.1,0.1
	L74,5.9L73.8,6l-0.1,0.1l-0.1,0.1l-0.2,0.1l-0.1,0.1L73,6.4l-0.1,0.1l-0.1,0.1l-0.1,0.1l-0.2,0.1l-0.1,0.1l-0.1,0.1v0.1L72.3,7
	l0.1,0.1l0.1,0.1l0.1,0.2l0.1,0.1h0.1l0.1-0.1h0.3l0.1,0.1l0.2,0.1l0.1,0.1l0.1,0.1L74,7.9L74.1,8L74.2,8l0.2,0.1l0.1,0.1l0.1,0.1
	l0.2,0.1l0.1,0.1l0.1,0.1l0.2,0.1l0.1,0.1l0.1,0.1l0.1,0.1l0.1,0.1l0.1,0.1L76,9h0.1l0.1-0.1l0.1-0.1l0.1-0.1l0.1-0.1l0.1-0.1
	l0.1-0.1l0.1-0.1l0.1-0.1l0.1-0.1l0.1-0.1L77,8.2l0.1-0.1L77.2,8L77.3,8l0.3-0.1l0.2-0.1l0.1-0.1l0.2-0.1l0.1-0.1l0.1-0.1l0.2-0.1
	l0.1-0.1l0.1-0.1L79,7.3l0.3-0.1l0.3-0.1l0.2-0.1L80.1,7l0.2-0.1l0.2-0.1l0.2-0.1l0.1-0.1l0.2-0.1l0.2-0.1l0.1-0.1l0.2-0.1l0.1-0.1
	l0.1-0.1l0.1-0.1l0.1-0.1l0.1-0.1L82.5,6l0.1-0.1l0.1-0.1l0.1-0.1l0.1-0.1l0.1-0.1l0.1-0.1l0.1-0.1l0.1-0.1l0.1-0.1l0.1-0.1l0.1-0.1
	V4.9l-0.1-0.1l-0.1-0.1V4.6l0.1-0.1l0.1-0.1l0.2-0.1V4.2L84.2,4l-0.1-0.1l-0.1-0.2L84,3.5h-0.3l-0.1,0.1l-0.2,0.1l0.1-0.1l0.1-0.1
	l0.1-0.1l0.1-0.1L84,3.3l0.1-0.1l0.1-0.1l0.1-0.1L84.5,3L84.6,3l0.1-0.1l0.1-0.1L85,2.8l0.1-0.1l0.1-0.1l0.1-0.1l0.1-0.1l0.1-0.1
	l0.1-0.1L86,2.3l0.1-0.1l0.1-0.1l0.1-0.1L86.5,2V1.6l-0.1-0.2l-0.1-0.1l-0.1-0.2h-0.2L85.8,1.1z M83.3,3.7l-0.1,0.1L83.3,3.7z
	 M83.2,3.8l-0.2,0L83.2,3.8z"/>
<polygon class="st1" points="78.3,10.9 77.8,11 77.4,11.1 77.1,11.1 76.9,11.2 76.7,11.3 76.6,11.3 76.4,11.4 76.2,11.5 76.1,11.6 
	75.9,11.6 75.6,11.7 75.3,11.8 74.9,11.8 74.7,11.9 74.3,12 74,12 73.7,12.1 73.5,12.2 73.2,12.3 72.9,12.3 72.6,12.4 72.3,12.5 
	72,12.5 71.8,12.6 71.6,12.7 71.3,12.7 71.1,12.8 70.8,12.9 70.6,13 70.4,13 70.1,13.1 69.9,13.2 69.7,13.2 69.5,13.3 69.2,13.4 
	69,13.5 68.8,13.5 68.6,13.6 68.4,13.7 68.2,13.7 68,13.8 67.8,13.9 67.6,13.9 67.4,14 67.2,14.1 67,14.2 66.8,14.2 66.7,14.3 
	66.5,14.4 66.3,14.4 66.1,14.5 65.9,14.6 65.8,14.6 65.5,14.7 65.4,14.8 65.2,14.9 65.1,14.9 64.8,15 64.7,15.1 64.5,15.1 
	64.3,15.2 64.2,15.3 64,15.3 63.9,15.4 63.7,15.5 63.5,15.6 63.4,15.6 63.2,15.7 63.1,15.8 62.9,15.8 62.7,15.9 62.6,16 62.4,16.1 
	62.3,16.1 62.1,16.2 61.9,16.3 61.8,16.3 61.7,16.4 61.5,16.5 61.4,16.5 61.2,16.6 61.1,16.7 61,16.8 60.8,16.8 60.7,16.9 60.5,17 
	60.4,17 60.3,17.1 60.2,17.2 60,17.2 59.9,17.3 59.8,17.4 59.6,17.5 59.5,17.5 59.3,17.6 59.3,17.7 59.1,17.7 59,17.8 58.8,17.9 
	58.8,18 58.6,18 58.5,18.1 58.3,18.2 58.3,18.2 58.1,18.3 58,18.4 57.8,18.4 57.8,18.5 57.6,18.6 57.5,18.7 57.4,18.7 57.3,18.8 
	57.1,18.9 57,18.9 56.9,19 56.8,19.1 56.7,19.1 56.6,19.2 56.4,19.3 56.4,19.4 56.2,19.4 56.1,19.5 56,19.6 55.9,19.6 55.7,19.7 
	55.7,19.8 55.5,19.8 55.4,19.9 55.3,20 55.2,20.1 55.1,20.1 55,20.2 54.9,20.3 54.7,20.3 54.7,20.4 54.5,20.5 54.4,20.6 54.3,20.6 
	54.2,20.7 54.1,20.8 54,20.8 53.9,20.9 53.8,21 53.7,21 53.5,21.1 53.5,21.2 53.3,21.3 53.3,21.3 53.1,21.4 53,21.5 52.9,21.5 
	52.8,21.6 52.7,21.7 52.6,21.7 52.5,21.8 52.3,21.9 52.3,22 52.1,22 52.1,22.1 51.9,22.2 51.8,22.2 51.7,22.3 51.6,22.4 51.5,22.4 
	51.4,22.5 51.3,22.6 51.2,22.7 51.1,22.7 51,22.8 50.9,22.9 50.8,22.9 50.6,23 50.6,23.1 50.4,23.2 50.4,23.2 50.3,23.3 50.2,23.4 
	50.1,23.4 49.9,23.5 49.9,23.6 49.7,23.6 49.7,23.7 49.5,23.8 49.4,23.9 49.3,23.9 49.2,24 49.1,24.1 49,24.1 48.9,24.2 48.8,24.3 
	48.7,24.3 48.6,24.4 48.5,24.5 48.4,24.6 48.2,24.6 48.2,24.7 48.1,24.8 48,24.8 47.9,24.9 47.7,25 47.7,25 47.5,25.1 47.5,25.2 
	47.3,25.3 47.3,25.3 47.1,25.4 47,25.5 46.9,25.5 46.8,25.6 46.7,25.7 46.6,25.8 46.5,25.8 46.4,25.9 46.3,26 46.2,26 46.1,26.1 
	46,26.2 45.8,26.2 45.8,26.3 45.6,26.4 45.6,26.5 45.4,26.5 45.3,26.6 45.2,26.7 45.1,26.7 45,26.8 44.9,26.9 44.8,26.9 44.7,27 
	44.6,27.1 44.5,27.2 44.4,27.2 44.4,27.3 44.3,27.4 44.2,27.4 44.1,27.5 44.1,27.6 44,27.7 43.9,27.7 43.9,27.8 43.8,27.9 
	43.7,27.9 43.7,28 43.6,28.1 43.5,28.2 43.4,28.3 43.4,28.4 43.3,28.4 43.2,28.5 43.2,28.6 43.1,28.7 43,28.8 42.9,28.8 42.9,28.9 
	42.8,29 42.7,29.1 42.7,29.1 42.6,29.2 42.5,29.3 42.5,29.3 42.4,29.4 42.3,29.5 42.2,29.5 42.2,29.6 42.5,29.6 42.6,29.5 
	42.7,29.5 42.9,29.4 43.1,29.3 43.2,29.3 43.4,29.2 43.6,29.1 43.8,29.1 43.9,29 44.1,28.9 44.4,28.8 44.5,28.8 44.7,28.7 
	44.9,28.6 45.1,28.6 45.3,28.5 45.3,28.4 45.4,28.4 45.5,28.3 45.6,28.2 45.6,28.1 45.7,28.1 45.8,28 45.8,27.9 45.9,27.9 46,27.8 
	46.1,27.7 46.1,27.7 46.2,27.5 46.3,27.4 46.3,27.4 46.4,27.3 46.5,27.2 46.5,27.1 46.6,27 46.7,26.9 46.8,26.8 46.8,26.7 
	46.9,26.7 47,26.6 47,26.5 47.1,26.5 47.3,26.4 47.3,26.3 47.5,26.2 47.5,26.2 47.6,26.1 47.7,26 47.8,26 48,25.9 48,25.8 
	48.2,25.8 48.2,25.7 48.4,25.6 48.5,25.5 48.6,25.5 48.7,25.4 48.8,25.3 48.9,25.3 49,25.2 49.1,25.1 49.2,25 49.3,25 49.4,24.9 
	49.5,24.8 49.7,24.8 49.7,24.7 49.9,24.6 49.9,24.6 50.1,24.5 50.2,24.4 50.3,24.3 50.4,24.3 50.5,24.2 50.6,24.1 50.7,24.1 
	50.8,24 50.9,23.9 51,23.9 51.1,23.8 51.2,23.7 51.4,23.6 51.5,23.6 51.6,23.5 51.7,23.4 51.8,23.4 51.9,23.3 52,23.2 52.1,23.2 
	52.2,23.1 52.3,23 52.5,22.9 52.6,22.9 52.7,22.8 52.8,22.7 52.9,22.7 53,22.6 53.1,22.5 53.3,22.4 53.3,22.4 53.5,22.3 53.5,22.2 
	53.7,22.2 53.8,22.1 53.9,22 54,22 54.2,21.9 54.2,21.8 54.4,21.7 54.5,21.7 54.6,21.6 54.7,21.5 54.8,21.5 55,21.4 55.1,21.3 
	55.2,21.3 55.3,21.2 55.4,21.1 55.6,21 55.7,21 55.8,20.9 55.9,20.8 56,20.8 56.2,20.7 56.3,20.6 56.4,20.6 56.6,20.5 56.6,20.4 
	56.8,20.3 56.9,20.3 57.1,20.2 57.2,20.1 57.3,20.1 57.4,20 57.6,19.9 57.7,19.8 57.8,19.8 58,19.7 58.1,19.6 58.2,19.6 58.3,19.5 
	58.5,19.4 58.6,19.4 58.8,19.3 58.9,19.2 59,19.1 59.2,19.1 59.3,19 59.5,18.9 59.6,18.9 59.8,18.8 60,18.7 60.1,18.7 60.2,18.6 
	60.4,18.5 60.5,18.4 60.7,18.4 60.9,18.3 61,18.2 61.2,18.2 61.4,18.1 61.5,18 61.7,18 61.9,17.9 62,17.8 62.2,17.7 62.4,17.7 
	62.6,17.6 62.7,17.5 62.9,17.5 63.1,17.4 63.3,17.3 63.4,17.2 63.6,17.2 63.8,17.1 64,17 64.2,17 64.3,16.9 64.6,16.8 64.8,16.8 
	65,16.7 65.1,16.6 65.3,16.5 65.5,16.5 65.8,16.4 66,16.3 66.2,16.3 66.4,16.2 66.6,16.1 66.8,16.1 67,16 67.2,15.9 67.5,15.8 
	67.7,15.8 67.9,15.7 68.2,15.6 68.4,15.6 68.7,15.5 68.9,15.4 69.2,15.3 69.4,15.3 69.6,15.2 69.9,15.1 70.1,15.1 70.4,15 
	70.7,14.9 71,14.9 71.3,14.8 71.6,14.7 71.8,14.6 72.1,14.6 72.2,14.6 72.1,14.6 72,14.7 71.9,14.8 71.8,14.9 71.8,14.9 71.7,15 
	71.6,15.1 71.6,15.1 71.5,15.2 71.4,15.3 71.3,15.3 71.3,15.4 71.2,15.5 71.1,15.6 71.1,15.6 71,15.7 70.9,15.8 70.8,15.8 
	70.8,15.9 70.7,16 70.6,16.1 70.6,16.1 70.5,16.2 70.4,16.3 70.4,16.4 70.3,16.5 70.2,16.5 70.1,16.6 70.1,16.7 70,16.8 69.9,16.8 
	69.9,16.9 69.8,17 69.7,17 69.6,17.2 69.6,17.2 69.5,17.3 69.4,17.4 69.4,17.5 69.3,17.5 69.2,17.7 69.2,17.7 69.1,17.8 69,17.9 
	68.9,18 68.9,18.1 68.8,18.2 68.7,18.2 68.7,18.4 68.6,18.4 68.5,18.5 68.4,18.7 68.4,18.7 68.3,18.9 68.2,18.9 68.2,19 68.1,19.1 
	68,19.2 67.9,19.4 67.9,19.4 67.8,19.6 67.7,19.7 67.7,19.8 67.6,19.9 67.5,20.1 67.5,20.1 67.4,20.3 67.3,20.4 67.2,20.5 
	67.2,20.6 67.1,20.8 67,20.9 67,21 66.9,21.2 66.8,21.3 66.7,21.4 66.7,21.5 66.6,21.7 66.5,21.9 66.5,22 66.4,22.2 66.3,22.3 
	66.3,22.4 66.2,22.6 66.1,22.8 66,22.9 66,23.2 65.9,23.3 65.8,23.5 65.8,23.7 65.7,23.9 65.6,24.1 65.5,24.3 65.5,24.6 65.4,24.8 
	65.3,25 65.3,25.4 65.2,25.8 65.1,26.2 65.1,26.9 65.1,27.6 65.1,28.3 65.2,28.6 65.3,28.8 65.3,29.1 65.4,29.3 65.5,29.5 
	65.5,29.6 65.6,29.8 65.7,29.9 65.8,30 65.8,30.1 65.9,30.3 66,30.3 66,30.4 66.1,30.5 66.2,30.6 66.3,30.7 66.3,30.7 66.4,30.8 
	66.5,30.9 66.5,31 66.6,31 66.7,31.1 66.8,31.2 66.9,31.2 67,31.3 67.1,31.4 67.2,31.4 67.3,31.5 67.5,31.6 67.6,31.7 67.7,31.7 
	67.8,31.8 68,31.9 68.2,31.9 68.3,32 68.5,32.1 68.7,32.2 68.9,32.2 69.2,32.3 69.4,32.4 69.6,32.4 70,32.5 70.3,32.6 70.6,32.6 
	70.9,32.7 71.3,32.8 71.6,32.9 72,32.9 72.3,33 72.6,33.1 73,33.1 73.2,33.2 73.6,33.3 73.9,33.3 74.2,33.4 74.4,33.5 74.7,33.6 
	75,33.6 75.2,33.7 75.4,33.8 75.7,33.8 75.9,33.9 76.1,34 76.3,34 76.5,34.1 76.7,34.2 76.8,34.3 77.1,34.3 77.2,34.4 77.3,34.5 
	77.5,34.5 77.6,34.6 77.8,34.7 77.9,34.8 78.1,34.8 78.2,34.9 78.3,35 78.4,35 78.5,35.1 78.6,35.2 78.7,35.2 78.8,35.3 78.9,35.4 
	79,35.5 79.1,35.5 79.2,35.6 79.2,35.7 79.3,35.7 79.4,35.8 79.5,35.9 79.5,35.9 79.6,36 79.7,36.1 79.7,36.2 79.8,36.2 79.9,36.3 
	80,36.4 80,36.4 80.1,36.6 80.2,36.6 80.2,36.8 80.3,36.9 80.4,37 80.5,37.1 80.5,37.2 80.6,37.4 80.7,37.5 80.7,37.6 80.8,37.8 
	80.9,38 80.9,38.2 81,38.5 81.1,38.7 81.2,39 81.2,39.5 81.2,41.8 81.2,42.3 81.1,42.8 81,43.2 80.9,43.5 80.9,43.8 80.8,44.2 
	80.7,44.4 80.7,44.7 80.6,44.9 80.5,45.2 80.5,45.4 80.4,45.6 80.3,45.8 80.2,46 80.2,46.2 80.1,46.4 80,46.6 80,46.8 79.9,47 
	79.8,47.1 79.7,47.3 79.7,47.5 79.6,47.7 79.5,47.8 79.5,48 79.4,48.2 79.3,48.3 79.2,48.5 79.2,48.6 79.1,48.7 79,48.9 79,49 
	78.9,49.2 78.8,49.3 78.8,49.4 78.7,49.6 78.6,49.7 78.5,49.9 78.5,50 78.4,50.1 78.3,50.3 78.3,50.4 78.2,50.6 78.1,50.6 
	78.1,50.8 78,50.9 77.9,51.1 77.8,51.1 77.8,51.3 77.7,51.4 77.6,51.5 77.6,51.6 77.5,51.8 77.4,51.8 77.3,52 77.3,52.1 77.2,52.2 
	77.1,52.3 77.1,52.4 77,52.5 76.9,52.6 76.8,52.7 76.8,52.9 76.7,53 76.6,53.1 76.6,53.2 76.5,53.2 76.4,53.4 76.4,53.4 76.3,53.6 
	76.2,53.7 76.1,53.8 76.1,53.9 76,54 75.9,54.1 75.9,54.2 75.8,54.3 75.7,54.4 75.6,54.4 75.6,54.6 75.5,54.6 75.4,54.7 75.4,54.9 
	75.3,54.9 75.2,55 75.2,55.1 75.1,55.2 75,55.3 74.9,55.4 74.9,55.5 74.8,55.6 74.7,55.6 74.7,55.8 74.6,55.8 74.5,55.9 74.4,56 
	74.4,56.1 74.3,56.2 74.2,56.3 74.2,56.3 74.1,56.4 74,56.5 74,56.6 73.9,56.7 73.8,56.8 73.7,56.8 73.7,56.9 73.6,57 73.5,57 
	73.5,57.2 73.4,57.2 73.3,57.3 73.2,57.4 73.2,57.5 73.1,57.5 73,57.6 73,57.7 72.9,57.7 72.8,57.8 72.8,58 72.7,58 72.6,58.1 
	72.5,58.2 72.5,58.2 72.4,58.3 72.3,58.4 72.3,58.4 72.2,58.5 72.1,58.6 72,58.7 72,58.7 71.9,58.8 71.8,58.9 71.8,58.9 71.7,59 
	71.6,59.1 71.6,59.1 71.5,59.2 71.4,59.3 71.3,59.4 71.3,59.4 71.2,59.5 71.1,59.6 71,59.6 70.9,59.7 70.8,59.8 70.8,59.8 
	70.7,59.9 70.6,60 70.6,60.1 70.5,60.1 70.4,60.2 70.4,60.3 70.2,60.3 70.1,60.4 70.1,60.5 70,60.5 69.9,60.6 69.9,60.7 69.7,60.8 
	69.6,60.8 69.6,60.9 69.5,61 69.4,61 69.4,61.1 69.2,61.2 69.2,61.3 69.1,61.3 69,61.4 68.9,61.5 68.8,61.5 68.7,61.6 68.7,61.7 
	68.5,61.7 68.4,61.8 68.4,61.9 68.3,62 68.2,62 68.2,62.1 68.1,62.2 68,62.2 67.9,62.3 67.9,62.4 67.8,62.4 67.7,62.5 67.7,62.7 
	67.6,62.7 67.5,62.8 67.5,62.9 67.4,62.9 67.3,63 67.2,63.1 67.2,63.2 67.1,63.3 67,63.4 67,63.4 66.9,63.5 66.8,63.6 66.7,63.6 
	66.7,63.7 66.6,63.8 66.5,63.9 66.4,64 66.3,64.1 66.3,64.1 66.5,64.1 66.6,64.1 66.7,64 66.7,63.9 66.9,63.9 67,63.8 67,63.7 
	67.1,63.6 67.2,63.6 67.3,63.5 67.4,63.4 67.5,63.4 67.5,63.3 67.7,63.2 67.7,63.2 67.8,63.1 67.9,63 67.9,62.9 68.1,62.9 
	68.2,62.8 68.2,62.7 68.3,62.7 68.4,62.6 68.4,62.5 68.5,62.4 68.7,62.4 68.7,62.3 68.8,62.2 68.9,62.2 68.9,62.1 69,62 69.1,62 
	69.2,61.9 69.3,61.8 69.4,61.7 69.4,61.7 69.5,61.6 69.6,61.5 69.6,61.5 69.7,61.4 69.8,61.3 69.9,61.3 70,61.2 70.1,61.1 70.1,61 
	70.2,61 70.3,60.9 70.4,60.8 70.4,60.8 70.5,60.7 70.6,60.6 70.6,60.5 70.7,60.5 70.8,60.4 70.8,60.3 70.9,60.3 71,60.2 71.1,60.1 
	71.1,60.1 71.2,60 71.3,59.9 71.3,59.8 71.4,59.8 71.5,59.7 71.6,59.6 71.6,59.6 71.7,59.5 71.8,59.4 71.8,59.4 71.9,59.3 72,59.2 
	72,59.1 72.1,59.1 72.2,59 72.3,58.9 72.3,58.9 72.4,58.8 72.5,58.7 72.5,58.7 72.6,58.6 72.7,58.5 72.8,58.4 72.8,58.4 72.9,58.3 
	73,58.2 73,58.2 73.1,58.1 73.2,58 73.2,58 73.3,57.9 73.4,57.8 73.5,57.7 73.5,57.6 73.6,57.5 73.7,57.5 73.7,57.4 73.8,57.3 
	73.9,57.2 74,57.2 74,57.1 74.1,57 74.2,57 74.2,56.8 74.3,56.8 74.4,56.7 74.4,56.6 74.5,56.5 74.6,56.5 74.7,56.4 74.7,56.3 
	74.8,56.2 74.9,56.1 74.9,56.1 75,56 75.1,55.9 75.2,55.8 75.2,55.7 75.3,55.6 75.4,55.6 75.4,55.5 75.5,55.4 75.6,55.3 75.6,55.2 
	75.7,55.1 75.8,55.1 75.9,55 75.9,54.9 76,54.8 76.1,54.7 76.1,54.6 76.2,54.6 76.3,54.4 76.4,54.4 76.4,54.3 76.5,54.2 76.6,54.1 
	76.6,54 76.7,53.9 76.8,53.8 76.8,53.7 76.9,53.7 77,53.6 77.1,53.4 77.1,53.4 77.2,53.3 77.3,53.2 77.3,53.1 77.4,53 77.5,52.9 
	77.6,52.8 77.6,52.7 77.7,52.6 77.8,52.5 77.8,52.5 77.9,52.3 78,52.3 78.1,52.2 78.1,52 78.2,52 78.3,51.8 78.3,51.8 78.4,51.7 
	78.5,51.6 78.5,51.5 78.6,51.3 78.7,51.3 78.8,51.1 78.8,51.1 78.9,51 79,50.8 79,50.8 79.1,50.6 79.2,50.6 79.2,50.4 79.3,50.4 
	79.4,50.2 79.5,50.1 79.5,50 79.6,49.9 79.7,49.8 79.7,49.7 79.8,49.6 79.9,49.4 80,49.4 80,49.2 80.1,49.1 80.2,49 80.2,48.9 
	80.3,48.7 80.4,48.7 80.5,48.5 80.5,48.4 80.6,48.3 80.7,48.2 80.7,48 80.8,48 80.9,47.8 80.9,47.7 81,47.5 81.1,47.4 81.2,47.3 
	81.2,47.2 81.3,47.1 81.4,46.9 81.4,46.8 81.5,46.6 81.6,46.5 81.7,46.4 81.7,46.2 81.8,46.1 81.9,45.9 81.9,45.8 82,45.6 
	82.1,45.5 82.1,45.4 82.2,45.2 82.3,45.1 82.4,44.9 82.4,44.7 82.5,44.6 82.6,44.4 82.6,44.2 82.7,44.1 82.8,43.9 82.9,43.7 
	82.9,43.5 83,43.3 83.1,43.1 83.1,43 83.2,42.8 83.3,42.6 83.3,42.3 83.4,42.1 83.5,41.9 83.6,41.6 83.6,41.3 83.7,41 83.8,40.7 
	83.8,40.3 83.9,39.9 84,39.3 84,37.1 83.9,36.6 83.8,36.3 83.8,36 83.7,35.7 83.6,35.5 83.6,35.4 83.5,35.2 83.4,35 83.3,34.9 
	83.3,34.8 83.2,34.6 83.1,34.5 83.1,34.3 83,34.3 82.9,34.1 82.9,34 82.8,34 82.7,33.8 82.6,33.8 82.6,33.7 82.5,33.6 82.4,33.5 
	82.4,33.4 82.3,33.3 82.2,33.3 82.1,33.2 82.1,33.1 82,33.1 81.9,33 81.8,32.9 81.7,32.9 81.7,32.8 81.6,32.7 81.4,32.6 81.4,32.6 
	81.3,32.5 81.2,32.4 81.1,32.4 80.9,32.3 80.8,32.2 80.7,32.2 80.6,32.1 80.5,32 80.3,31.9 80.2,31.9 80,31.8 79.9,31.7 79.7,31.7 
	79.5,31.6 79.4,31.5 79.2,31.4 79,31.4 78.8,31.3 78.6,31.2 78.4,31.2 78.1,31.1 77.9,31 77.6,31 77.3,30.9 77.1,30.8 76.8,30.7 
	76.5,30.7 76.1,30.6 75.8,30.5 75.4,30.5 75.1,30.4 74.7,30.3 74.3,30.3 74,30.2 73.5,30.1 73.1,30 72.8,30 72.5,29.9 72.1,29.8 
	71.8,29.8 71.6,29.7 71.3,29.6 71.1,29.5 70.9,29.5 70.7,29.4 70.5,29.3 70.4,29.3 70.2,29.2 70.1,29.1 69.9,29.1 69.8,29 
	69.6,28.9 69.6,28.8 69.4,28.8 69.4,28.7 69.3,28.6 69.2,28.6 69.1,28.5 69,28.4 68.9,28.4 68.9,28.3 68.8,28.2 68.7,28.1 68.7,28 
	68.6,27.9 68.5,27.8 68.4,27.7 68.4,27.6 68.3,27.4 68.2,27.3 68.2,27.2 68.1,26.9 68,26.7 67.9,26.5 67.9,26.2 67.8,25.9 
	67.7,25.4 67.7,23.9 67.8,23.3 67.9,22.9 67.9,22.6 68,22.3 68.1,22 68.2,21.8 68.2,21.5 68.3,21.3 68.4,21.1 68.4,21 68.5,20.8 
	68.6,20.6 68.7,20.4 68.7,20.3 68.8,20.1 68.9,19.9 68.9,19.8 69,19.6 69.1,19.5 69.2,19.4 69.2,19.2 69.3,19.1 69.4,18.9 
	69.4,18.9 69.5,18.7 69.6,18.6 69.6,18.4 69.7,18.4 69.8,18.2 69.9,18.1 69.9,18 70,17.9 70.1,17.8 70.1,17.7 70.2,17.6 70.3,17.5 
	70.4,17.4 70.4,17.3 70.5,17.2 70.6,17.1 70.6,17 70.7,16.9 70.8,16.8 70.8,16.8 70.9,16.6 71,16.5 71.1,16.5 71.1,16.4 71.2,16.3 
	71.3,16.2 71.3,16.1 71.4,16.1 71.5,16 71.6,15.9 71.6,15.8 71.7,15.8 71.8,15.7 71.8,15.6 71.9,15.6 72,15.5 72,15.4 72.1,15.3 
	72.2,15.3 72.3,15.2 72.3,15.1 72.4,15.1 72.5,15 72.5,14.9 72.7,14.9 72.8,14.8 72.8,14.7 72.9,14.6 73,14.6 73.1,14.5 73.2,14.4 
	73.3,14.4 73.5,14.3 73.8,14.2 74.2,14.2 74.5,14.1 74.9,14 75.4,13.9 75.8,13.9 76.2,13.8 76.7,13.7 77.2,13.7 77.8,13.6 
	78.4,13.5 79.1,13.5 79.5,13.4 79.7,13.3 79.7,13.2 79.8,13.2 79.9,13.1 80,13 80,13 80.1,12.9 80.2,12.8 80.2,12.7 80.3,12.7 
	80.4,12.6 80.5,12.5 80.5,12.5 80.6,12.4 80.7,12.3 80.7,12.2 80.8,12.1 80.9,12 80.9,12 81,11.9 81.1,11.8 81.2,11.7 81.2,11.6 
	81.3,11.6 81.4,11.5 81.4,11.4 81.5,11.3 81.6,11.3 81.7,11.2 81.7,11.1 81.8,11 81.9,10.9 81.9,10.9 81,10.9 "/>
<path class="st2" d="M186.7,51.7h-10.4c-3.4,0-6.5-0.6-9.2-1.7c-3.8-1.6-5.7-3.9-5.7-7.1c0-3.1,1.9-5.4,5.7-7
	c2.8-1.2,5.8-1.7,9.2-1.7h10.4c0.7,0,1.4,0.1,2.1,0.3c1,0.3,1.5,0.7,1.5,1.3c0,0.6-0.5,1-1.5,1.3c-0.7,0.2-1.4,0.3-2.1,0.3h-7.2
	c-2.1,0-4,0.3-5.5,1c-2.1,0.9-3.2,2.4-3.2,4.4c0,2,1.1,3.5,3.2,4.4c1.5,0.7,3.4,1,5.5,1h7.3c0.7,0,1.4,0.1,2.1,0.3
	c1,0.3,1.5,0.7,1.5,1.3c0,0.5-0.5,1-1.5,1.3C188.1,51.6,187.4,51.7,186.7,51.7 M148.5,40v-1.1c0-0.5-0.4-1-1.2-1.2
	c-0.6-0.2-1.1-0.3-1.7-0.3h-12.8c-0.7,0-1.4-0.1-2.1-0.3c-1-0.3-1.5-0.7-1.5-1.3c0-0.6,0.5-1,1.4-1.3c0.6-0.2,1.3-0.3,2-0.3h15.9
	c2,0,3.9,0.3,5.8,1c2.5,0.9,3.8,2.3,3.8,4.1v9.9c0,0.9-0.7,1.5-2,2c-0.9,0.3-1.9,0.5-2.9,0.5s-2-0.2-2.9-0.5c-1.3-0.4-2-1.1-2-2
	v-4.5c0-0.5-0.4-0.9-1.2-1.2c-0.6-0.2-1.1-0.3-1.7-0.3h-7.2c-0.6,0-1.2,0.1-1.7,0.3c-0.8,0.3-1.2,0.7-1.2,1.2v2.1
	c0,0.5,0.4,0.9,1.2,1.2c0.6,0.2,1.1,0.3,1.7,0.3h3.5c0.7,0,1.4,0.1,2.1,0.3c1,0.3,1.5,0.7,1.5,1.3c0,0.5-0.5,1-1.5,1.3
	c-0.7,0.2-1.4,0.3-2.1,0.3h-6.6c-2,0-3.9-0.3-5.8-1c-2.5-0.9-3.8-2.3-3.8-4.1v-1.4c0-1.8,1.3-3.1,3.8-4.1c1.9-0.7,3.8-1,5.8-1
	C135.3,40,148.5,40,148.5,40z M104,37.9l10.3,12.5c0.7,0.9,2,1.3,3.9,1.3c1.1,0,2.1-0.2,3.1-0.5c1.4-0.5,2-1.2,2-2.1
	c0-0.4-0.2-0.7-0.5-1.1l-10.2-12.5c-0.7-0.9-2-1.3-3.9-1.3c-1.1,0-2.1,0.2-3.1,0.5c-1.4,0.5-2,1.2-2,2.1
	C103.6,37.2,103.7,37.6,104,37.9z M81.1,51.4c0.8,0.2,1.7,0.4,2.6,0.4c2,0,3.3-0.4,4-1.3l7.8-10l4.5,5.3c0.5,0.6,1.4,0.9,2.6,0.9
	c0.7,0,1.4-0.1,2-0.4c0.9-0.3,1.3-0.8,1.3-1.4c0-0.3-0.1-0.6-0.3-0.8l-7.9-8.6c-0.2-0.2-0.4-0.3-0.6-0.4c-1-0.7-2.4-1-4-1
	c-1.9,0-3.2,0.4-3.9,1.3L79,48c-0.3,0.4-0.5,0.7-0.5,1.1C78.5,50.1,79.4,50.8,81.1,51.4z M53.1,51.3c-1.7-0.5-2.6-1.3-2.6-2.3
	c0-0.4,0.2-0.8,0.6-1.1l12.1-10.5h-8.5c-1.5,0-2.5,0-3-0.1c-1-0.2-1.5-0.7-1.5-1.3c0-1.2,1.5-1.7,4.5-1.7H69c1.6,0,2.9,0.3,4,0.8
	c1.1,0.5,1.6,1.2,1.6,1.9c0,0.4-0.2,0.8-0.6,1.1L61.9,48.5h9.6c1.5,0,2.9,0.4,4.4,1.1c0.1,0.1,0.1,0.2,0.1,0.5
	c0,0.7-0.5,1.1-1.5,1.3c-0.6,0.1-1.6,0.2-3,0.2H55.6C54.8,51.7,53.9,51.6,53.1,51.3z M41.5,51.7c-1,0-2-0.2-2.9-0.5
	c-1.3-0.4-2-1.1-2-2V36.6c0-0.9,0.7-1.5,2-2c0.9-0.3,1.9-0.5,2.9-0.5s2,0.2,2.9,0.5c1.3,0.4,2,1.1,2,2v12.6c0,0.9-0.7,1.5-2,2
	C43.5,51.5,42.5,51.7,41.5,51.7z M24,38.4c0-0.7-1-1.1-2.9-1.1h-7.2c-1.9,0-2.9,0.4-2.9,1.1v0.4c0,0.7,1,1.1,2.9,1.1h7.2
	c1.9,0,2.9-0.4,2.9-1.1V38.4z M24.1,51.7h-6.6c-0.7,0-1.4-0.1-2.1-0.3c-1-0.3-1.5-0.8-1.5-1.3c0-0.6,0.5-1,1.5-1.3
	c0.7-0.2,1.4-0.3,2.1-0.3H21c0.6,0,1.2-0.1,1.7-0.3c0.8-0.3,1.2-0.7,1.2-1.2v-2.1c0-0.5-0.4-0.9-1.2-1.2c-0.5-0.2-1.1-0.3-1.7-0.3
	h-7.2c-0.6,0-1.2,0.1-1.7,0.3c-0.8,0.3-1.2,0.7-1.2,1.2v4.5c0,0.9-0.7,1.5-2,2c-1,0.3-1.9,0.5-2.9,0.5c-1,0-2-0.2-2.9-0.5
	c-1.3-0.4-2-1.1-2-2v-9.9c0,0,0-0.2,0-0.4c0.2-1.7,1.5-3,3.9-3.8c1.8-0.6,3.6-1,5.6-1h12.2c4.1,0,7,0.7,8.8,2.1
	c1,0.8,1.5,1.6,1.5,2.4c0,1.4-0.6,2.5-1.8,3.2c1.5,0.9,2.2,2.1,2.2,3.3v1.3c0,1.8-1.3,3.2-3.8,4.1C28,51.3,26.1,51.7,24.1,51.7z"/>
<path class="st2" d="M189.7,18.9V20c0,0.2,0,0.4-0.1,0.5c-0.1,0.1-0.2,0.2-0.3,0.3c-0.1,0.1-0.2,0.1-0.4,0.2s-0.3,0.1-0.4,0.1
	c-0.1,0-0.3,0-0.5,0c-0.4,0-0.9,0-1.5-0.1v-0.6c0.6,0.1,1.1,0.2,1.5,0.2c0.3,0,0.5,0,0.7-0.1c0.2-0.1,0.2-0.2,0.2-0.5v-1
	c0-0.1,0-0.2-0.1-0.3c0-0.1-0.1-0.1-0.2-0.1c-0.1,0-0.2,0-0.3-0.1c-0.1,0-0.2,0-0.3,0h-1.5v-2.6h2.9v0.5h-2.2V18h1.2
	c0.2,0,0.4,0,0.5,0.1c0.2,0,0.3,0.1,0.4,0.3C189.7,18.5,189.7,18.7,189.7,18.9 M184,19.9v-2.7c0-0.4-0.1-0.6-0.2-0.7
	c-0.2-0.1-0.4-0.2-0.8-0.2c-0.4,0-0.7,0.1-0.8,0.2c-0.2,0.1-0.2,0.3-0.2,0.7v2.7c0,0.3,0.1,0.6,0.2,0.7c0.2,0.1,0.4,0.1,0.8,0.1
	s0.7,0,0.8-0.1C183.9,20.4,184,20.2,184,19.9z M184.7,17.2v2.6c0,0.2,0,0.4-0.1,0.6s-0.2,0.3-0.3,0.4c-0.1,0.1-0.2,0.2-0.4,0.2
	s-0.3,0.1-0.5,0.1c-0.2,0-0.3,0-0.5,0c-0.2,0-0.4,0-0.5,0c-0.2,0-0.3,0-0.5-0.1c-0.2,0-0.3-0.1-0.4-0.2c-0.1-0.1-0.2-0.2-0.3-0.4
	s-0.1-0.4-0.1-0.6v-2.6c0-0.2,0-0.5,0.1-0.6c0.1-0.2,0.2-0.3,0.3-0.4c0.1-0.1,0.2-0.2,0.4-0.2c0.2-0.1,0.3-0.1,0.5-0.1
	c0.1,0,0.3,0,0.5,0c0.2,0,0.4,0,0.5,0c0.1,0,0.3,0,0.5,0.1s0.3,0.1,0.4,0.2c0.1,0.1,0.2,0.2,0.3,0.4C184.7,16.8,184.7,17,184.7,17.2
	z M178.8,19.9v-2.7c0-0.4-0.1-0.6-0.2-0.7c-0.2-0.1-0.4-0.2-0.8-0.2c-0.4,0-0.7,0.1-0.8,0.2c-0.2,0.1-0.2,0.3-0.2,0.7v2.7
	c0,0.3,0.1,0.6,0.3,0.7c0.2,0.1,0.4,0.1,0.8,0.1c0.4,0,0.7,0,0.8-0.1C178.7,20.4,178.8,20.2,178.8,19.9z M179.5,17.2v2.6
	c0,0.2,0,0.4-0.1,0.6s-0.2,0.3-0.3,0.4c-0.1,0.1-0.2,0.2-0.4,0.2c-0.2,0.1-0.3,0.1-0.5,0.1s-0.3,0-0.5,0c-0.2,0-0.4,0-0.5,0
	c-0.1,0-0.3,0-0.5-0.1c-0.2,0-0.3-0.1-0.4-0.2s-0.2-0.2-0.3-0.4c-0.1-0.2-0.1-0.4-0.1-0.6v-2.6c0-0.2,0-0.5,0.1-0.6
	c0.1-0.2,0.2-0.3,0.3-0.4c0.1-0.1,0.2-0.2,0.4-0.2c0.2-0.1,0.3-0.1,0.5-0.1c0.1,0,0.3,0,0.5,0c0.2,0,0.4,0,0.5,0
	c0.1,0,0.3,0,0.5,0.1c0.2,0.1,0.3,0.1,0.4,0.2c0.1,0.1,0.2,0.2,0.3,0.4C179.5,16.8,179.5,17,179.5,17.2z M174.2,21h-3.4v-0.9
	c0-0.2,0-0.3,0.1-0.4c0.1-0.1,0.1-0.2,0.2-0.3c0.1-0.1,0.2-0.2,0.3-0.3c0.1-0.1,0.3-0.2,0.3-0.2c0.1,0,0.2-0.1,0.4-0.2l0.8-0.4
	c0.3-0.2,0.5-0.4,0.5-0.7V17c0-0.2-0.1-0.4-0.2-0.5c-0.2-0.1-0.4-0.1-0.8-0.1c-0.4,0-0.9,0.1-1.5,0.2V16c0.5-0.1,1.1-0.1,1.6-0.1
	c0.6,0,1,0.1,1.2,0.3c0.3,0.2,0.4,0.5,0.4,0.9v0.8c0,0.3-0.1,0.5-0.2,0.6c-0.1,0.1-0.4,0.3-0.8,0.5l-1.2,0.5
	c-0.3,0.2-0.5,0.4-0.5,0.7v0.3h2.7L174.2,21L174.2,21z M166.9,18.8v-0.6c0-0.2-0.1-0.4-0.2-0.5c-0.1-0.1-0.4-0.1-0.7-0.1
	c-0.3,0-0.5,0-0.7,0.1c-0.2,0.1-0.2,0.2-0.2,0.5v0.6H166.9z M167.6,19.3H165v0.6c0,0.3,0.1,0.5,0.3,0.6c0.2,0.1,0.5,0.2,0.8,0.2
	c0.4,0,0.8-0.1,1.3-0.2V21c-0.5,0.1-0.9,0.2-1.4,0.2c-1.2,0-1.7-0.4-1.7-1.2v-1.5c0-0.5,0.1-0.8,0.4-1c0.3-0.2,0.7-0.3,1.3-0.3
	c0.6,0,1,0.1,1.2,0.3c0.3,0.2,0.4,0.5,0.4,1L167.6,19.3L167.6,19.3z M162.9,21c-0.3,0.1-0.8,0.1-1.2,0.1c-0.2,0-0.4,0-0.5,0
	c-0.1,0-0.3,0-0.4-0.1c-0.2,0-0.3-0.1-0.4-0.2c-0.1-0.1-0.2-0.2-0.2-0.4c-0.1-0.2-0.1-0.4-0.1-0.6v-1.4c0-0.2,0-0.4,0.1-0.5
	c0-0.2,0.1-0.3,0.2-0.4c0.1-0.1,0.2-0.2,0.3-0.2c0.1-0.1,0.2-0.1,0.4-0.1c0.2,0,0.3,0,0.4,0c0.1,0,0.3,0,0.5,0c0.4,0,0.7,0,1.1,0.1
	v0.5c-0.4-0.1-0.8-0.2-1.2-0.2c-0.4,0-0.6,0-0.8,0.1c-0.1,0.1-0.2,0.3-0.2,0.6v1.6c0,0.3,0.1,0.5,0.2,0.6c0.1,0.1,0.4,0.1,0.8,0.1
	c0.4,0,0.8,0,1.1-0.1L162.9,21L162.9,21z M158.2,21h-0.7v-2.8c0-0.1,0-0.2,0-0.2c0-0.1,0-0.1-0.1-0.2c-0.1-0.1-0.1-0.1-0.3-0.1
	c-0.1,0-0.3-0.1-0.4-0.1c-0.4,0-0.7,0-0.8,0.1c-0.1,0.1-0.2,0.3-0.2,0.5V21H155v-3.8h0.7v0.5c0.1-0.4,0.5-0.5,1.2-0.5
	c0.5,0,0.8,0.1,1,0.3c0.2,0.2,0.3,0.5,0.3,0.8V21z M153.1,21h-0.7v-3.8h0.7V21z M153.1,16.6h-0.7v-0.7h0.7V16.6z M150.7,19.3v0.4
	c0,0.5-0.2,0.9-0.5,1.1c-0.3,0.2-0.8,0.3-1.4,0.3c-0.4,0-0.9,0-1.6-0.1v-0.6c0.6,0.1,1.2,0.2,1.6,0.2c0.4,0,0.6,0,0.8-0.1
	c0.2-0.1,0.3-0.2,0.3-0.5v-0.7c0-0.2-0.1-0.4-0.2-0.5c-0.1-0.1-0.3-0.1-0.7-0.1h-0.6c-0.5,0-0.9-0.1-1.1-0.3
	c-0.2-0.2-0.3-0.5-0.3-0.9V17c0-0.4,0.1-0.7,0.4-0.9c0.3-0.2,0.8-0.3,1.6-0.3c0.4,0,0.8,0,1.3,0.1v0.6c-0.6-0.1-1-0.1-1.4-0.1
	c-0.5,0-0.8,0-1,0.1c-0.2,0.1-0.2,0.3-0.2,0.5v0.6c0,0.2,0.1,0.3,0.2,0.4s0.3,0.1,0.7,0.1h0.6c0.5,0,0.9,0.1,1.1,0.3
	C150.6,18.6,150.7,18.9,150.7,19.3z"/>
<path class="st2" d="M188.9,60.2v-2.3c0-0.3-0.1-0.6-0.3-0.7c-0.2-0.1-0.6-0.2-1.1-0.2c-0.5,0-0.9,0.1-1,0.2s-0.2,0.3-0.2,0.7v2.3
	c0,0.4,0.1,0.6,0.3,0.7c0.2,0.1,0.5,0.2,1,0.2c0.5,0,0.8-0.1,1-0.2C188.7,60.7,188.9,60.5,188.9,60.2 M189.8,56.5V62
	c0,0.7-0.2,1.2-0.6,1.5c-0.4,0.2-1,0.4-1.8,0.4c-0.7,0-1.3,0-1.8-0.1v-0.7c0.8,0.1,1.4,0.1,1.8,0.1c0.5,0,0.8-0.1,1.1-0.2
	c0.2-0.2,0.3-0.4,0.3-0.8V61c0,0.2-0.2,0.4-0.5,0.5c-0.3,0.1-0.7,0.1-1.1,0.1c-0.8,0-1.3-0.1-1.6-0.4c-0.3-0.2-0.4-0.6-0.4-1.2V58
	c0-0.6,0.2-1,0.5-1.3c0.3-0.3,0.9-0.4,1.6-0.4c0.9,0,1.4,0.2,1.6,0.6v-0.5H189.8z M183.8,61.6h-0.9v-3.7c0-0.1,0-0.2,0-0.3
	c0-0.1-0.1-0.2-0.1-0.3c-0.1-0.1-0.2-0.2-0.3-0.2c-0.2,0-0.4-0.1-0.6-0.1c-0.6,0-0.9,0.1-1.1,0.2c-0.2,0.1-0.3,0.3-0.3,0.7v3.7h-0.9
	v-5.1h0.9v0.6c0.1-0.5,0.7-0.7,1.7-0.7c0.7,0,1.1,0.1,1.4,0.4c0.3,0.2,0.4,0.6,0.4,1.1L183.8,61.6L183.8,61.6z M177.7,61.6h-0.9
	v-5.1h0.9V61.6z M177.7,55.6h-0.9v-1h0.9V55.6z M175.1,61.6h-0.9v-7.4h0.9V61.6z M172.5,61.6h-0.9v-5.1h0.9V61.6z M172.5,55.6h-0.9
	v-1h0.9V55.6z M169,60.5v-1.4h-1.5c-0.4,0-0.7,0.1-0.8,0.2c-0.1,0.1-0.2,0.4-0.2,0.8c0,0.4,0.1,0.6,0.2,0.8c0.1,0.1,0.4,0.2,0.7,0.2
	h0.2c0.2,0,0.3,0,0.5,0s0.3,0,0.4-0.1c0.2,0,0.3-0.1,0.4-0.2C169,60.7,169,60.6,169,60.5z M169.9,61.6H169v-0.5
	c-0.1,0.4-0.6,0.6-1.5,0.6c-0.7,0-1.2-0.1-1.5-0.3c-0.3-0.2-0.4-0.6-0.4-1.3c0-0.6,0.1-1,0.4-1.2c0.3-0.2,0.7-0.3,1.5-0.3h1.5v-0.8
	c0-0.3-0.1-0.5-0.3-0.6c-0.2-0.1-0.5-0.1-1-0.1c-0.5,0-1.1,0-1.8,0.1v-0.7c0.7-0.1,1.3-0.1,1.9-0.1c0.9,0,1.4,0.1,1.7,0.3
	s0.4,0.6,0.4,1.3V61.6z M164.6,59.8v0.4c0,0.5-0.2,0.9-0.6,1.1c-0.4,0.2-0.9,0.3-1.7,0.3c-0.6,0-1.1,0-1.8-0.1v-0.7
	c0.8,0.1,1.4,0.2,1.8,0.2c0.4,0,0.7,0,1-0.1c0.2-0.1,0.3-0.2,0.3-0.5v-0.5c0-0.2-0.1-0.4-0.2-0.5c-0.1-0.1-0.4-0.1-0.7-0.1h-0.6
	c-0.5,0-0.9-0.1-1.2-0.3c-0.3-0.2-0.4-0.5-0.4-0.9v-0.5c0-0.8,0.8-1.2,2.3-1.2c0.2,0,0.7,0,1.6,0.1v0.7c-0.6-0.1-1.1-0.1-1.6-0.1
	c-0.5,0-0.9,0.1-1,0.1c-0.2,0.1-0.3,0.3-0.3,0.5V58c0,0.3,0.3,0.5,0.9,0.5h0.6C164.1,58.6,164.6,59,164.6,59.8z M155.7,61.6h-0.9
	v-3.7c0-0.1,0-0.2,0-0.3c0-0.1-0.1-0.2-0.1-0.3c-0.1-0.1-0.2-0.2-0.3-0.2c-0.2,0-0.4-0.1-0.6-0.1c-0.6,0-1,0.1-1.1,0.2
	c-0.2,0.1-0.3,0.3-0.3,0.7v3.7h-0.9v-7.4h0.9v2.9c0.1-0.5,0.7-0.7,1.7-0.7c0.7,0,1.1,0.1,1.4,0.4c0.3,0.2,0.4,0.6,0.4,1.1V61.6z
	 M150.2,61.6c-0.3,0.1-0.7,0.1-1.1,0.1c-0.6,0-1.1-0.1-1.3-0.3c-0.3-0.2-0.4-0.6-0.4-1.3v-3h-1.1v-0.6h1.1v-1.6h1v1.6h1.8v0.6h-1.8
	v3.1c0,0.4,0.1,0.6,0.2,0.7s0.4,0.2,0.9,0.2c0.1,0,0.4,0,0.8-0.1V61.6z M144.6,60.1V58c0-0.5-0.1-0.8-0.3-0.9s-0.6-0.2-1.1-0.2
	c-0.5,0-0.9,0.1-1.1,0.2c-0.2,0.1-0.3,0.4-0.3,0.9v2.1c0,0.2,0,0.4,0.1,0.5c0,0.1,0.1,0.2,0.3,0.3c0.1,0.1,0.3,0.1,0.4,0.1
	c0.1,0,0.3,0,0.6,0c0.3,0,0.5,0,0.6,0c0.1,0,0.3-0.1,0.4-0.1c0.1-0.1,0.2-0.2,0.3-0.3C144.5,60.5,144.6,60.3,144.6,60.1z
	 M145.5,58.2v1.8c0,0.3,0,0.6-0.1,0.8c-0.1,0.2-0.2,0.4-0.3,0.5c-0.1,0.1-0.3,0.2-0.5,0.3c-0.2,0.1-0.4,0.1-0.6,0.1s-0.5,0-0.8,0
	c-0.4,0-0.8,0-1,0c-0.2,0-0.5-0.1-0.7-0.2c-0.2-0.1-0.4-0.3-0.5-0.5c-0.1-0.2-0.2-0.6-0.2-1v-1.8c0-0.3,0-0.6,0.1-0.9
	s0.2-0.4,0.3-0.5c0.1-0.1,0.3-0.2,0.5-0.3c0.2-0.1,0.4-0.1,0.6-0.1c0.2,0,0.5,0,0.8,0s0.6,0,0.8,0c0.2,0,0.4,0.1,0.6,0.1
	c0.2,0.1,0.4,0.2,0.5,0.3c0.1,0.1,0.2,0.3,0.3,0.5C145.5,57.5,145.5,57.8,145.5,58.2z M138.6,60.1V58c0-0.5-0.1-0.8-0.3-0.9
	s-0.6-0.2-1.1-0.2c-0.5,0-0.9,0.1-1.1,0.2s-0.3,0.4-0.3,0.9v2.1c0,0.2,0,0.4,0.1,0.5c0.1,0.1,0.1,0.2,0.3,0.3
	c0.1,0.1,0.3,0.1,0.4,0.1c0.1,0,0.3,0,0.6,0s0.5,0,0.6,0c0.1,0,0.3-0.1,0.4-0.1c0.1-0.1,0.2-0.2,0.3-0.3
	C138.5,60.5,138.6,60.3,138.6,60.1z M139.5,58.2v1.8c0,0.3,0,0.6-0.1,0.8c-0.1,0.2-0.2,0.4-0.3,0.5c-0.1,0.1-0.3,0.2-0.5,0.3
	c-0.2,0.1-0.4,0.1-0.6,0.1s-0.5,0-0.8,0c-0.4,0-0.8,0-1,0c-0.2,0-0.5-0.1-0.7-0.2c-0.2-0.1-0.4-0.3-0.5-0.5c-0.1-0.2-0.2-0.6-0.2-1
	v-1.8c0-0.3,0-0.6,0.1-0.9c0.1-0.2,0.2-0.4,0.3-0.5c0.1-0.1,0.3-0.2,0.5-0.3c0.2-0.1,0.4-0.1,0.6-0.1c0.2,0,0.5,0,0.8,0s0.6,0,0.8,0
	c0.2,0,0.4,0.1,0.6,0.1c0.2,0.1,0.4,0.2,0.5,0.3c0.1,0.1,0.2,0.3,0.3,0.5C139.5,57.5,139.5,57.8,139.5,58.2z M133.4,61.6h-1v-3.7
	c0-0.1,0-0.2,0-0.3c0-0.1-0.1-0.2-0.1-0.3c-0.1-0.1-0.2-0.2-0.3-0.2c-0.2,0-0.4-0.1-0.6-0.1c-0.6,0-0.9,0.1-1.1,0.2
	c-0.2,0.1-0.2,0.3-0.2,0.7v3.7h-0.9v-3.7c0-0.1,0-0.2,0-0.3c0-0.1-0.1-0.2-0.1-0.3c-0.1-0.1-0.2-0.2-0.3-0.2c-0.2,0-0.4-0.1-0.6-0.1
	c-0.6,0-0.9,0.1-1.1,0.2c-0.2,0.1-0.3,0.3-0.3,0.7v3.7h-1v-5.1h1v0.6c0.1-0.5,0.7-0.7,1.7-0.7c0.9,0,1.4,0.2,1.6,0.7
	c0.1-0.2,0.3-0.4,0.6-0.5c0.3-0.1,0.7-0.2,1.2-0.2c0.7,0,1.1,0.1,1.4,0.4s0.4,0.6,0.4,1.1L133.4,61.6L133.4,61.6z M124.3,59.8v0.4
	c0,0.5-0.2,0.9-0.6,1.1c-0.4,0.2-0.9,0.3-1.7,0.3c-0.5,0-1.1,0-1.8-0.1v-0.7c0.8,0.1,1.4,0.2,1.8,0.2c0.4,0,0.7,0,1-0.1
	c0.2-0.1,0.3-0.2,0.3-0.5v-0.5c0-0.2-0.1-0.4-0.2-0.5c-0.1-0.1-0.4-0.1-0.7-0.1h-0.6c-0.5,0-0.9-0.1-1.2-0.3
	c-0.3-0.2-0.4-0.5-0.4-0.9v-0.5c0-0.8,0.8-1.2,2.3-1.2c0.2,0,0.7,0,1.6,0.1v0.7c-0.6-0.1-1.1-0.1-1.6-0.1c-0.5,0-0.9,0.1-1,0.1
	c-0.2,0.1-0.3,0.3-0.3,0.5V58c0,0.3,0.3,0.5,0.9,0.5h0.6C123.8,58.6,124.3,59,124.3,59.8z M115.7,59.8v0.4c0,0.5-0.2,0.9-0.6,1.1
	c-0.4,0.2-0.9,0.3-1.7,0.3c-0.5,0-1.1,0-1.8-0.1v-0.7c0.8,0.1,1.4,0.2,1.8,0.2c0.4,0,0.7,0,1-0.1c0.2-0.1,0.3-0.2,0.3-0.5v-0.5
	c0-0.2-0.1-0.4-0.2-0.5c-0.1-0.1-0.4-0.1-0.7-0.1h-0.6c-0.5,0-0.9-0.1-1.2-0.3c-0.3-0.2-0.4-0.5-0.4-0.9v-0.5c0-0.8,0.8-1.2,2.3-1.2
	c0.2,0,0.7,0,1.6,0.1v0.7c-0.6-0.1-1.1-0.1-1.6-0.1c-0.5,0-0.8,0.1-1,0.1c-0.2,0.1-0.3,0.3-0.3,0.5V58c0,0.3,0.3,0.5,0.9,0.5h0.6
	C115.2,58.6,115.7,59,115.7,59.8z M110.6,59.8v0.4c0,0.5-0.2,0.9-0.6,1.1c-0.4,0.2-0.9,0.3-1.7,0.3c-0.5,0-1.1,0-1.8-0.1v-0.7
	c0.8,0.1,1.4,0.2,1.8,0.2c0.4,0,0.7,0,0.9-0.1c0.2-0.1,0.3-0.2,0.3-0.5v-0.5c0-0.2-0.1-0.4-0.2-0.5c-0.1-0.1-0.4-0.1-0.7-0.1h-0.6
	c-0.5,0-0.9-0.1-1.2-0.3c-0.3-0.2-0.4-0.5-0.4-0.9v-0.5c0-0.8,0.8-1.2,2.3-1.2c0.2,0,0.7,0,1.6,0.1v0.7c-0.6-0.1-1.1-0.1-1.6-0.1
	c-0.5,0-0.8,0.1-1,0.1c-0.2,0.1-0.3,0.3-0.3,0.5V58c0,0.3,0.3,0.5,0.9,0.5h0.6C110.1,58.6,110.6,59,110.6,59.8z M104.4,58.6v-0.8
	c0-0.3-0.1-0.5-0.3-0.6c-0.2-0.1-0.5-0.2-1-0.2c-0.4,0-0.7,0.1-0.9,0.2c-0.2,0.1-0.3,0.3-0.3,0.6v0.8H104.4z M105.4,59.2h-3.4V60
	c0,0.4,0.1,0.6,0.4,0.8c0.3,0.2,0.6,0.2,1.1,0.2c0.5,0,1.1-0.1,1.7-0.3v0.7c-0.6,0.1-1.2,0.2-1.8,0.2c-1.6,0-2.3-0.5-2.3-1.6v-2
	c0-0.6,0.2-1.1,0.5-1.3c0.4-0.3,0.9-0.4,1.7-0.4c0.7,0,1.3,0.1,1.6,0.4c0.3,0.3,0.5,0.7,0.5,1.4L105.4,59.2L105.4,59.2z M99.5,61.6
	h-1v-3.7c0-0.1,0-0.2,0-0.3c0-0.1-0.1-0.2-0.1-0.3c-0.1-0.1-0.2-0.2-0.3-0.2c-0.2,0-0.4-0.1-0.6-0.1c-0.6,0-0.9,0.1-1.1,0.2
	c-0.2,0.1-0.3,0.3-0.3,0.7v3.7h-1v-5.1h1v0.6c0.1-0.5,0.7-0.7,1.7-0.7c0.7,0,1.1,0.1,1.4,0.4s0.4,0.6,0.4,1.1L99.5,61.6L99.5,61.6z
	 M93.5,61.6h-0.9v-5.1h0.9V61.6z M93.5,55.6h-0.9v-1h0.9V55.6z M91.2,59.8v0.4c0,0.5-0.2,0.9-0.6,1.1c-0.4,0.2-0.9,0.3-1.7,0.3
	c-0.5,0-1.1,0-1.8-0.1v-0.7c0.8,0.1,1.4,0.2,1.8,0.2c0.4,0,0.7,0,1-0.1c0.2-0.1,0.3-0.2,0.3-0.5v-0.5c0-0.2-0.1-0.4-0.2-0.5
	c-0.1-0.1-0.4-0.1-0.7-0.1h-0.6c-0.5,0-0.9-0.1-1.2-0.3c-0.3-0.2-0.4-0.5-0.4-0.9v-0.5c0-0.8,0.8-1.2,2.3-1.2c0.2,0,0.7,0,1.6,0.1
	v0.7C90.3,57,89.8,57,89.3,57c-0.5,0-0.8,0.1-1,0.1c-0.2,0.1-0.3,0.3-0.3,0.5V58c0,0.3,0.3,0.5,0.9,0.5h0.6
	C90.7,58.6,91.2,59,91.2,59.8z M85.8,61.6h-0.9v-0.6c-0.1,0.5-0.7,0.7-1.7,0.7c-0.7,0-1.1-0.1-1.4-0.4c-0.3-0.2-0.4-0.6-0.4-1.1
	v-3.7h1v3.7c0,0.1,0,0.2,0,0.3c0,0.1,0.1,0.2,0.1,0.3c0.1,0.1,0.2,0.2,0.3,0.2c0.2,0,0.4,0.1,0.6,0.1c0.5,0,0.9,0,1.1-0.1
	s0.3-0.3,0.3-0.5v-3.9h0.9L85.8,61.6L85.8,61.6z M78.9,60v-2c0-0.4-0.1-0.7-0.3-0.8C78.4,57.1,78,57,77.5,57c-0.5,0-0.8,0.1-1,0.2
	s-0.3,0.4-0.3,0.8v2c0,0.4,0.1,0.7,0.3,0.8C76.7,61,77,61,77.5,61c0.5,0,0.9-0.1,1.1-0.2S78.9,60.5,78.9,60z M79.9,57.8v2.1
	c0,0.3,0,0.6-0.1,0.8c-0.1,0.2-0.2,0.4-0.3,0.5c-0.1,0.1-0.3,0.2-0.5,0.3c-0.2,0.1-0.4,0.1-0.6,0.1c-0.2,0-0.4,0-0.7,0
	c-0.4,0-0.7,0-0.9-0.1c-0.2,0-0.5-0.1-0.7-0.2c-0.2-0.1-0.4-0.3-0.5-0.5c-0.1-0.2-0.2-0.6-0.2-1v-5.7h1v1.5c0,0.1,0,0.3,0,0.6
	c0,0.3,0,0.5,0,0.6c0-0.2,0.2-0.3,0.4-0.4c0.3-0.1,0.7-0.2,1.2-0.2C79.2,56.3,79.9,56.8,79.9,57.8z M70.8,57.2h-0.5
	c-0.4,0-0.8,0.1-1,0.2C69.1,57.4,69,57.7,69,58v3.6H68v-5.1h0.9v0.8c0-0.2,0.2-0.5,0.5-0.7c0.3-0.2,0.6-0.3,0.9-0.3h0.5L70.8,57.2
	L70.8,57.2z M66.4,61.6h-1v-0.6c-0.1,0.5-0.7,0.7-1.7,0.7c-0.7,0-1.1-0.1-1.4-0.4c-0.3-0.2-0.4-0.6-0.4-1.1v-3.7h1v3.7
	c0,0.1,0,0.2,0,0.3c0,0.1,0.1,0.2,0.1,0.3c0.1,0.1,0.2,0.2,0.3,0.2c0.2,0,0.4,0.1,0.6,0.1c0.5,0,0.9,0,1.1-0.1
	c0.2-0.1,0.3-0.3,0.3-0.5v-3.9h1V61.6z M59.5,60.1V58c0-0.5-0.1-0.8-0.3-0.9C59.1,57,58.7,57,58.1,57S57.2,57,57,57.1
	s-0.3,0.4-0.3,0.9v2.1c0,0.2,0,0.4,0.1,0.5c0,0.1,0.1,0.2,0.3,0.3c0.1,0.1,0.3,0.1,0.4,0.1c0.1,0,0.3,0,0.6,0c0.3,0,0.5,0,0.6,0
	c0.1,0,0.3-0.1,0.4-0.1c0.1-0.1,0.2-0.2,0.3-0.3C59.5,60.5,59.5,60.3,59.5,60.1z M60.5,58.2v1.8c0,0.3,0,0.6-0.1,0.8
	c-0.1,0.2-0.2,0.4-0.3,0.5c-0.1,0.1-0.3,0.2-0.5,0.3c-0.2,0.1-0.4,0.1-0.6,0.1s-0.5,0-0.8,0c-0.4,0-0.8,0-1,0
	c-0.2,0-0.5-0.1-0.7-0.2c-0.2-0.1-0.4-0.3-0.5-0.5c-0.1-0.2-0.2-0.6-0.2-1v-1.8c0-0.3,0-0.6,0.1-0.9s0.2-0.4,0.3-0.5
	c0.1-0.1,0.3-0.2,0.5-0.3c0.2-0.1,0.4-0.1,0.6-0.1c0.2,0,0.5,0,0.8,0c0.3,0,0.6,0,0.8,0c0.2,0,0.4,0.1,0.6,0.1
	c0.2,0.1,0.4,0.2,0.5,0.3c0.1,0.1,0.2,0.3,0.3,0.5S60.5,57.8,60.5,58.2z M55.1,56.5l-2.6,7.3h-1l0.8-2.1l-2-5.2h1l1.4,4.2h0l1.3-4.2
	H55.1z M45.2,58.6v-0.8c0-0.3-0.1-0.5-0.3-0.6C44.7,57,44.4,57,44,57c-0.4,0-0.7,0.1-0.9,0.2c-0.2,0.1-0.3,0.3-0.3,0.6v0.8H45.2z
	 M46.2,59.2h-3.4V60c0,0.4,0.1,0.6,0.4,0.8c0.3,0.2,0.6,0.2,1.1,0.2c0.5,0,1.1-0.1,1.7-0.3v0.7c-0.6,0.1-1.2,0.2-1.8,0.2
	c-1.6,0-2.3-0.5-2.3-1.6v-2c0-0.6,0.2-1.1,0.5-1.3c0.4-0.3,0.9-0.4,1.7-0.4c0.7,0,1.3,0.1,1.6,0.4c0.3,0.3,0.5,0.7,0.5,1.4
	L46.2,59.2L46.2,59.2z M37.5,61.6h-1v-7.4h1V61.6z M41.1,61.6h-1.2l-2.3-2.8l2.2-2.3h1.2l-2.2,2.3L41.1,61.6z M33.9,60.5v-1.4h-1.5
	c-0.4,0-0.7,0.1-0.8,0.2c-0.1,0.1-0.2,0.4-0.2,0.8c0,0.4,0.1,0.6,0.2,0.8C31.8,61,32,61,32.4,61h0.2c0.2,0,0.3,0,0.5,0
	s0.3,0,0.4-0.1c0.2,0,0.3-0.1,0.4-0.2C33.9,60.7,33.9,60.6,33.9,60.5z M34.9,61.6H34v-0.5c-0.1,0.4-0.6,0.6-1.5,0.6
	c-0.7,0-1.2-0.1-1.5-0.3c-0.3-0.2-0.4-0.6-0.4-1.3c0-0.6,0.1-1,0.4-1.2c0.3-0.2,0.7-0.3,1.5-0.3h1.5v-0.8c0-0.3-0.1-0.5-0.3-0.6
	c-0.2-0.1-0.5-0.1-1-0.1c-0.5,0-1.1,0-1.8,0.1v-0.7c0.7-0.1,1.3-0.1,1.9-0.1c0.9,0,1.4,0.1,1.7,0.3c0.3,0.2,0.4,0.6,0.4,1.3
	L34.9,61.6L34.9,61.6z M29.2,61.6h-1v-3.7c0-0.1,0-0.2,0-0.3s-0.1-0.2-0.1-0.3c-0.1-0.1-0.2-0.2-0.3-0.2c-0.2,0-0.4-0.1-0.6-0.1
	c-0.6,0-0.9,0.1-1.1,0.2c-0.2,0.1-0.2,0.3-0.2,0.7v3.7h-1v-3.7c0-0.1,0-0.2,0-0.3c0-0.1-0.1-0.2-0.1-0.3c-0.1-0.1-0.2-0.2-0.3-0.2
	c-0.2,0-0.4-0.1-0.6-0.1c-0.6,0-0.9,0.1-1.1,0.2c-0.2,0.1-0.3,0.3-0.3,0.7v3.7h-1v-5.1h1v0.6c0.1-0.5,0.7-0.7,1.7-0.7
	c0.9,0,1.4,0.2,1.6,0.7c0.1-0.2,0.3-0.4,0.6-0.5c0.3-0.1,0.7-0.2,1.2-0.2c0.7,0,1.1,0.1,1.4,0.4s0.4,0.6,0.4,1.1L29.2,61.6
	L29.2,61.6z"/>
</svg>
