<?xml version="1.0" encoding="utf-8"?>
<!-- Generator: Adobe Illustrator 21.0.0, SVG Export Plug-In . SVG Version: 6.00 Build 0)  -->
<svg version="1.1" id="Layer_1" xmlns="http://www.w3.org/2000/svg" xmlns:xlink="http://www.w3.org/1999/xlink" x="0px" y="0px"
	 viewBox="0 0 150 53.3" style="enable-background:new 0 0 150 53.3;" xml:space="preserve">
<style type="text/css">
	.st0{fill:#BBBDBF;}
	.st1{fill:#F48120;}
	.st2{fill:#2774BA;}
	.st3{fill:#76777A;}
</style>
<path class="st0" d="M47.4,5.7L47.4,5.7l-0.2,0.1l-0.1,0l-0.1,0l-0.1,0l-0.1,0l-0.1,0l-0.1,0l-0.1,0l-0.1,0l-0.1,0l-0.1,0.1l-0.1,0
	l-0.1,0l-0.1,0l-0.1,0l-0.1,0l-0.1,0l-0.1,0l-0.1,0l-0.1,0l-0.1,0l-0.1,0l-0.1,0l-0.1,0l-0.1,0l-0.1,0l-0.1,0l-0.1,0l-0.1,0l-0.1,0
	l-0.1,0l-0.1,0l-0.1,0l-0.1,0l-0.1,0l-0.1,0l-0.1,0l-0.1,0l-0.1,0l-0.1,0l-0.1,0l-0.1,0l-0.1,0l-0.1,0l-0.1,0l-0.1,0l-0.1,0
	l-0.1,0.1l-0.1,0l-0.1,0l-0.1,0l-0.1,0l-0.1,0l-0.1,0l-0.1,0l-0.1,0l-0.1,0l-0.1,0l-0.1,0l-0.1,0l-0.1,0l-0.1,0l-0.1,0l-0.1,0
	l-0.1,0l-0.1,0l-0.1,0l-0.1,0l-0.1,0l-0.1,0l-0.1,0l-0.1,0l-0.1,0l-0.1,0l-0.1,0l-0.1,0l-0.1,0l-0.1,0l0,0v0l0,0.1l0,0.1l0,0.1
	l0,0.1l0,0.1h0.1l0.1,0l0.1,0l0.1,0l0.1,0l0.1,0l0.1,0l0.1,0l0.1,0l0.1,0l0.1,0l0.1,0l0.1,0l0.1,0l0.1,0.1l0.1,0l0.1,0l0.1,0l0.1,0
	l0,0l0,0l0,0l0,0h0.1l0,0l0,0l0,0l0,0l0,0l0,0l0,0l0,0l0.1,0l0,0l0,0l0,0l0.1,0l0,0l0.1,0l0.1,0l0.1,0l0.1,0l0.1,0l0.1,0l0.1,0
	l0.1,0l0.1,0l0.1,0l0.1,0l0.1,0l0.1,0l0.1,0l0.1,0l0.1,0l0.1,0l0.1,0l0.1,0l0.1,0l0.1,0l0.1,0l0.1,0l0.1,0l0.1,0l0.1,0l0.1,0l0.1,0
	l0.1,0l0.1,0l0.1,0l0.1,0l0.1,0l0.1,0l0,0l0.1,0l0,0l0.1,0l0.1,0l0-0.1l0-0.1l0-0.1v0l0.1,0l0.1,0l0.1,0V7.1l0-0.1l0-0.1l0-0.1
	l0-0.1l-0.1,0l-0.1,0l-0.1,0l0.1,0l0.1,0l0,0l0.1,0l0.1,0l0.1,0l0.1,0l0.1,0l0.1,0l0,0l0.1,0l0.1,0l0.1,0l0.1,0l0.1,0l0.1,0l0,0
	l0.1,0l0.1,0l0.1,0l0.1,0l0.1,0l0.1,0l0.1,0l0-0.2l0-0.1l0-0.1l0-0.1h-0.1L47.4,5.7z M46.3,6.9L46.3,6.9L46.3,6.9z M46.2,6.9
	L46.2,6.9L46.2,6.9z"/>
<polygon class="st0" points="46,10.3 45.8,10.3 45.6,10.3 45.5,10.4 45.4,10.4 45.3,10.4 45.3,10.5 45.2,10.5 45.1,10.6 45,10.6 
	45,10.6 44.8,10.7 44.7,10.7 44.5,10.7 44.4,10.8 44.2,10.8 44.1,10.8 44,10.9 43.9,10.9 43.7,11 43.6,11 43.5,11 43.3,11.1 
	43.2,11.1 43.1,11.2 43,11.2 42.9,11.2 42.8,11.3 42.7,11.3 42.6,11.3 42.5,11.4 42.4,11.4 42.3,11.4 42.2,11.5 42.1,11.5 
	41.9,11.6 41.9,11.6 41.8,11.6 41.7,11.7 41.6,11.7 41.5,11.7 41.4,11.8 41.3,11.8 41.2,11.8 41.1,11.9 41.1,11.9 41,11.9 40.9,12 
	40.8,12 40.7,12.1 40.6,12.1 40.6,12.1 40.5,12.2 40.4,12.2 40.3,12.2 40.2,12.3 40.1,12.3 40.1,12.3 40,12.4 39.9,12.4 39.8,12.4 
	39.8,12.5 39.7,12.5 39.6,12.6 39.5,12.6 39.5,12.6 39.4,12.7 39.3,12.7 39.3,12.7 39.2,12.8 39.1,12.8 39,12.8 39,12.9 38.9,12.9 
	38.8,12.9 38.8,13 38.7,13 38.6,13 38.6,13.1 38.5,13.1 38.4,13.1 38.4,13.2 38.3,13.2 38.2,13.2 38.2,13.3 38.1,13.3 38.1,13.4 
	38,13.4 38,13.4 37.9,13.5 37.8,13.5 37.8,13.5 37.7,13.6 37.6,13.6 37.6,13.6 37.5,13.7 37.5,13.7 37.4,13.7 37.4,13.8 37.3,13.8 
	37.3,13.8 37.2,13.9 37.1,13.9 37.1,13.9 37.1,14 37,14 36.9,14 36.9,14.1 36.8,14.1 36.8,14.1 36.7,14.2 36.7,14.2 36.6,14.2 
	36.6,14.3 36.5,14.3 36.5,14.3 36.4,14.4 36.4,14.4 36.3,14.5 36.2,14.5 36.2,14.5 36.1,14.6 36.1,14.6 36,14.6 36,14.7 35.9,14.7 
	35.9,14.7 35.8,14.8 35.8,14.8 35.7,14.8 35.7,14.9 35.6,14.9 35.6,14.9 35.5,15 35.5,15 35.4,15 35.4,15.1 35.3,15.1 35.3,15.1 
	35.2,15.2 35.2,15.2 35.1,15.2 35.1,15.3 35,15.3 35,15.3 35,15.4 34.9,15.4 34.9,15.4 34.8,15.5 34.8,15.5 34.7,15.5 34.7,15.6 
	34.6,15.6 34.6,15.7 34.5,15.7 34.5,15.7 34.4,15.8 34.4,15.8 34.3,15.8 34.3,15.9 34.2,15.9 34.2,15.9 34.1,16 34.1,16 34,16 
	34,16.1 33.9,16.1 33.9,16.1 33.9,16.2 33.8,16.2 33.8,16.2 33.7,16.3 33.7,16.3 33.6,16.3 33.6,16.4 33.5,16.4 33.5,16.4 
	33.5,16.5 33.4,16.5 33.4,16.5 33.3,16.6 33.3,16.6 33.2,16.6 33.2,16.7 33.1,16.7 33.1,16.7 33,16.8 33,16.8 32.9,16.8 32.9,16.9 
	32.9,16.9 32.8,16.9 32.8,17 32.7,17 32.7,17.1 32.6,17.1 32.6,17.1 32.5,17.1 32.5,17.2 32.5,17.2 32.4,17.3 32.4,17.3 32.3,17.3 
	32.3,17.4 32.2,17.4 32.2,17.4 32.1,17.5 32.1,17.5 32,17.5 32,17.6 31.9,17.6 31.9,17.6 31.8,17.7 31.8,17.7 31.7,17.7 31.7,17.8 
	31.6,17.8 31.6,17.8 31.5,17.9 31.5,17.9 31.4,17.9 31.4,18 31.4,18 31.3,18 31.3,18.1 31.2,18.1 31.2,18.1 31.1,18.2 31.1,18.2 
	31,18.2 31,18.3 30.9,18.3 30.9,18.3 30.9,18.4 30.9,18.4 30.8,18.4 30.8,18.5 30.8,18.5 30.7,18.5 30.7,18.6 30.7,18.6 30.6,18.6 
	30.6,18.7 30.6,18.7 30.5,18.8 30.5,18.8 30.5,18.8 30.5,18.9 30.4,18.9 30.4,18.9 30.4,19 30.3,19 30.3,19.1 30.3,19.1 30.2,19.1 
	30.2,19.2 30.2,19.2 30.1,19.2 30.1,19.3 30.1,19.3 30.1,19.3 30,19.4 30,19.4 30,19.4 30,19.5 30.1,19.5 30.1,19.4 30.2,19.4 
	30.2,19.4 30.3,19.3 30.4,19.3 30.5,19.3 30.6,19.2 30.7,19.2 30.7,19.2 30.8,19.1 30.9,19.1 31,19.1 31.1,19 31.2,19 31.3,18.9 
	31.3,18.9 31.4,18.9 31.4,18.8 31.4,18.8 31.5,18.8 31.5,18.7 31.5,18.7 31.5,18.7 31.6,18.6 31.6,18.6 31.6,18.6 31.7,18.5 
	31.7,18.5 31.7,18.4 31.8,18.4 31.8,18.4 31.8,18.3 31.8,18.3 31.9,18.2 31.9,18.2 31.9,18.2 32,18.1 32,18.1 32,18 32.1,18 
	32.1,18 32.1,17.9 32.2,17.9 32.2,17.9 32.3,17.8 32.3,17.8 32.3,17.8 32.4,17.7 32.4,17.7 32.5,17.7 32.5,17.6 32.6,17.6 
	32.6,17.6 32.7,17.5 32.7,17.5 32.8,17.5 32.8,17.4 32.9,17.4 32.9,17.4 33,17.3 33,17.3 33.1,17.3 33.1,17.2 33.2,17.2 33.2,17.2 
	33.3,17.1 33.3,17.1 33.3,17.1 33.4,17 33.4,17 33.5,16.9 33.5,16.9 33.6,16.9 33.6,16.8 33.7,16.8 33.7,16.8 33.8,16.7 33.8,16.7 
	33.8,16.7 33.9,16.6 33.9,16.6 34,16.6 34.1,16.5 34.1,16.5 34.2,16.5 34.2,16.4 34.3,16.4 34.3,16.4 34.3,16.3 34.4,16.3 
	34.4,16.3 34.5,16.2 34.5,16.2 34.6,16.2 34.6,16.1 34.7,16.1 34.7,16.1 34.8,16 34.8,16 34.9,16 34.9,15.9 35,15.9 35,15.9 
	35.1,15.8 35.1,15.8 35.2,15.8 35.3,15.7 35.3,15.7 35.4,15.7 35.4,15.6 35.4,15.6 35.5,15.5 35.5,15.5 35.6,15.5 35.7,15.4 
	35.7,15.4 35.8,15.4 35.8,15.3 35.9,15.3 35.9,15.3 36,15.2 36,15.2 36.1,15.2 36.1,15.1 36.2,15.1 36.3,15.1 36.3,15 36.4,15 
	36.4,15 36.5,14.9 36.5,14.9 36.6,14.9 36.6,14.8 36.7,14.8 36.8,14.8 36.8,14.7 36.9,14.7 37,14.7 37,14.6 37,14.6 37.1,14.5 
	37.2,14.5 37.2,14.5 37.3,14.4 37.4,14.4 37.4,14.4 37.5,14.3 37.6,14.3 37.6,14.3 37.7,14.2 37.8,14.2 37.8,14.2 37.9,14.1 
	38,14.1 38,14.1 38.1,14 38.2,14 38.2,14 38.3,13.9 38.4,13.9 38.5,13.8 38.5,13.8 38.6,13.8 38.7,13.7 38.8,13.7 38.8,13.7 
	38.9,13.6 39,13.6 39.1,13.6 39.2,13.5 39.2,13.5 39.3,13.5 39.4,13.4 39.5,13.4 39.5,13.4 39.6,13.3 39.7,13.3 39.8,13.2 
	39.9,13.2 40,13.2 40.1,13.1 40.2,13.1 40.2,13.1 40.3,13 40.4,13 40.5,13 40.6,12.9 40.7,12.9 40.8,12.9 40.9,12.8 41,12.8 
	41.1,12.7 41.2,12.7 41.3,12.7 41.4,12.6 41.5,12.6 41.6,12.6 41.7,12.5 41.8,12.5 42,12.4 42.1,12.4 42.2,12.4 42.3,12.3 
	42.4,12.3 42.5,12.3 42.7,12.2 42.8,12.2 42.9,12.2 43,12.1 43.2,12.1 43.3,12 43.3,12 43.3,12.1 43.2,12.1 43.2,12.1 43.2,12.2 
	43.1,12.2 43.1,12.2 43.1,12.3 43,12.3 43,12.3 43,12.4 43,12.4 42.9,12.4 42.9,12.5 42.9,12.5 42.8,12.5 42.8,12.6 42.8,12.6 
	42.7,12.6 42.7,12.7 42.7,12.7 42.6,12.7 42.6,12.8 42.6,12.8 42.6,12.9 42.5,12.9 42.5,12.9 42.5,13 42.4,13 42.4,13 42.4,13.1 
	42.3,13.1 42.3,13.1 42.3,13.2 42.2,13.2 42.2,13.3 42.2,13.3 42.2,13.3 42.1,13.4 42.1,13.4 42.1,13.4 42,13.5 42,13.5 42,13.6 
	41.9,13.6 41.9,13.7 41.9,13.7 41.9,13.7 41.8,13.8 41.8,13.8 41.8,13.9 41.7,13.9 41.7,14 41.7,14 41.6,14.1 41.6,14.1 41.6,14.1 
	41.5,14.2 41.5,14.2 41.5,14.3 41.5,14.3 41.4,14.4 41.4,14.5 41.4,14.5 41.3,14.6 41.3,14.6 41.3,14.7 41.2,14.7 41.2,14.8 
	41.2,14.8 41.2,14.9 41.1,15 41.1,15 41.1,15.1 41,15.2 41,15.2 41,15.3 40.9,15.3 40.9,15.4 40.9,15.5 40.9,15.5 40.8,15.6 
	40.8,15.7 40.8,15.7 40.7,15.8 40.7,15.9 40.7,16 40.7,16.1 40.6,16.1 40.6,16.2 40.6,16.3 40.5,16.4 40.5,16.5 40.5,16.6 
	40.5,16.7 40.4,16.9 40.4,16.9 40.4,17.1 40.4,17.3 40.3,17.5 40.3,17.8 40.3,18.1 40.4,18.4 40.4,18.6 40.4,18.7 40.5,18.8 
	40.5,18.9 40.5,19 40.6,19 40.6,19.1 40.7,19.2 40.7,19.2 40.7,19.2 40.8,19.3 40.8,19.3 40.8,19.4 40.9,19.4 40.9,19.5 40.9,19.5 
	41,19.5 41,19.6 41,19.6 41.1,19.6 41.1,19.6 41.2,19.7 41.2,19.7 41.2,19.7 41.3,19.8 41.3,19.8 41.4,19.8 41.4,19.9 41.5,19.9 
	41.6,19.9 41.6,19.9 41.7,20 41.8,20 41.8,20 41.9,20.1 42,20.1 42.1,20.1 42.2,20.1 42.3,20.2 42.4,20.2 42.5,20.2 42.7,20.3 
	42.8,20.3 43,20.3 43.1,20.3 43.3,20.4 43.4,20.4 43.6,20.4 43.7,20.4 43.9,20.5 44,20.5 44.2,20.5 44.3,20.5 44.5,20.6 44.6,20.6 
	44.7,20.6 44.9,20.6 45,20.7 45.1,20.7 45.2,20.7 45.3,20.8 45.4,20.8 45.5,20.8 45.6,20.8 45.7,20.9 45.8,20.9 45.8,20.9 45.9,21 
	46,21 46.1,21 46.1,21 46.2,21.1 46.3,21.1 46.3,21.1 46.4,21.2 46.5,21.2 46.5,21.2 46.6,21.2 46.6,21.3 46.7,21.3 46.7,21.3 
	46.8,21.4 46.8,21.4 46.8,21.4 46.9,21.5 46.9,21.5 47,21.5 47,21.5 47,21.6 47,21.6 47.1,21.6 47.1,21.7 47.2,21.7 47.2,21.7 
	47.2,21.8 47.3,21.8 47.3,21.8 47.3,21.9 47.4,21.9 47.4,22 47.4,22 47.5,22 47.5,22.1 47.5,22.1 47.6,22.2 47.6,22.3 47.6,22.3 
	47.7,22.4 47.7,22.5 47.7,22.5 47.8,22.6 47.8,22.8 47.8,22.9 47.9,23 47.9,23.2 48,24.3 48,24.5 47.9,24.8 47.9,24.9 47.9,25.1 
	47.8,25.2 47.8,25.4 47.8,25.5 47.8,25.6 47.7,25.7 47.7,25.8 47.7,25.9 47.7,26 47.6,26.1 47.6,26.2 47.6,26.3 47.5,26.4 
	47.5,26.5 47.5,26.6 47.5,26.7 47.4,26.7 47.4,26.8 47.4,26.9 47.3,27 47.3,27.1 47.3,27.1 47.3,27.2 47.2,27.3 47.2,27.3 
	47.2,27.4 47.1,27.5 47.1,27.5 47.1,27.6 47,27.7 47,27.7 47,27.8 47,27.9 46.9,27.9 46.9,28 46.9,28.1 46.8,28.1 46.8,28.2 
	46.8,28.3 46.8,28.3 46.7,28.4 46.7,28.4 46.7,28.5 46.6,28.6 46.6,28.6 46.6,28.7 46.5,28.7 46.5,28.8 46.5,28.8 46.5,28.9 
	46.4,28.9 46.4,29 46.4,29.1 46.3,29.1 46.3,29.2 46.3,29.2 46.2,29.3 46.2,29.3 46.2,29.3 46.2,29.4 46.1,29.5 46.1,29.5 
	46.1,29.5 46,29.6 46,29.7 46,29.7 45.9,29.7 45.9,29.8 45.9,29.9 45.9,29.9 45.8,29.9 45.8,30 45.8,30 45.7,30.1 45.7,30.1 
	45.7,30.1 45.6,30.2 45.6,30.2 45.6,30.3 45.6,30.3 45.5,30.4 45.5,30.4 45.5,30.5 45.4,30.5 45.4,30.5 45.4,30.6 45.3,30.6 
	45.3,30.7 45.3,30.7 45.3,30.8 45.2,30.8 45.2,30.8 45.2,30.9 45.1,30.9 45.1,31 45.1,31 45,31 45,31.1 45,31.1 44.9,31.2 
	44.9,31.2 44.9,31.2 44.9,31.3 44.8,31.3 44.8,31.3 44.8,31.4 44.7,31.4 44.7,31.5 44.7,31.5 44.6,31.5 44.6,31.6 44.6,31.6 
	44.5,31.6 44.5,31.7 44.5,31.7 44.5,31.7 44.4,31.8 44.4,31.8 44.4,31.9 44.3,31.9 44.3,31.9 44.3,32 44.2,32 44.2,32 44.2,32.1 
	44.1,32.1 44.1,32.1 44.1,32.2 44.1,32.2 44,32.2 44,32.3 44,32.3 43.9,32.3 43.9,32.4 43.9,32.4 43.8,32.4 43.8,32.5 43.8,32.5 
	43.7,32.5 43.7,32.6 43.7,32.6 43.6,32.6 43.6,32.7 43.6,32.7 43.5,32.7 43.5,32.8 43.5,32.8 43.4,32.8 43.4,32.9 43.4,32.9 
	43.3,32.9 43.3,33 43.2,33 43.2,33 43.2,33.1 43.2,33.1 43.1,33.1 43.1,33.2 43,33.2 43,33.2 43,33.3 42.9,33.3 42.9,33.3 
	42.8,33.4 42.8,33.4 42.8,33.4 42.7,33.5 42.7,33.5 42.7,33.5 42.6,33.6 42.6,33.6 42.5,33.6 42.5,33.7 42.5,33.7 42.4,33.8 
	42.4,33.8 42.4,33.8 42.3,33.8 42.3,33.9 42.3,33.9 42.3,34 42.2,34 42.2,34 42.2,34.1 42.1,34.1 42.1,34.2 42.1,34.2 42,34.2 
	42,34.2 42,34.3 41.9,34.3 41.9,34.4 41.9,34.4 41.9,34.4 41.8,34.5 41.8,34.5 41.8,34.6 41.7,34.6 41.7,34.6 41.6,34.7 41.6,34.7 
	41.6,34.7 41.7,34.7 41.7,34.7 41.8,34.7 41.8,34.6 41.9,34.6 41.9,34.6 41.9,34.5 42,34.5 42,34.5 42,34.4 42.1,34.4 42.1,34.4 
	42.1,34.3 42.2,34.3 42.2,34.3 42.3,34.2 42.3,34.2 42.3,34.2 42.4,34.1 42.4,34.1 42.5,34.1 42.5,34 42.5,34 42.5,34 42.6,33.9 
	42.6,33.9 42.7,33.9 42.7,33.8 42.7,33.8 42.8,33.8 42.8,33.7 42.8,33.7 42.9,33.7 42.9,33.6 42.9,33.6 43,33.6 43,33.5 43,33.5 
	43.1,33.5 43.1,33.4 43.1,33.4 43.2,33.4 43.2,33.3 43.3,33.3 43.3,33.3 43.3,33.2 43.3,33.2 43.4,33.2 43.4,33.1 43.4,33.1 
	43.5,33.1 43.5,33 43.5,33 43.6,33 43.6,32.9 43.6,32.9 43.7,32.9 43.7,32.8 43.7,32.8 43.7,32.8 43.8,32.7 43.8,32.7 43.8,32.7 
	43.9,32.6 43.9,32.6 43.9,32.6 44,32.5 44,32.5 44,32.5 44.1,32.4 44.1,32.4 44.1,32.4 44.2,32.3 44.2,32.3 44.2,32.3 44.2,32.2 
	44.3,32.2 44.3,32.2 44.3,32.1 44.4,32.1 44.4,32.1 44.4,32 44.5,32 44.5,32 44.5,31.9 44.6,31.9 44.6,31.9 44.6,31.8 44.6,31.8 
	44.7,31.8 44.7,31.7 44.7,31.7 44.8,31.6 44.8,31.6 44.8,31.6 44.9,31.5 44.9,31.5 44.9,31.5 45,31.4 45,31.4 45,31.4 45,31.3 
	45.1,31.3 45.1,31.2 45.1,31.2 45.2,31.2 45.2,31.1 45.2,31.1 45.3,31.1 45.3,31 45.3,31 45.4,30.9 45.4,30.9 45.4,30.9 45.4,30.8 
	45.5,30.8 45.5,30.7 45.5,30.7 45.6,30.7 45.6,30.6 45.6,30.6 45.7,30.5 45.7,30.5 45.7,30.5 45.7,30.4 45.8,30.4 45.8,30.3 
	45.8,30.3 45.9,30.3 45.9,30.2 45.9,30.2 46,30.1 46,30.1 46,30.1 46.1,30 46.1,30 46.1,29.9 46.1,29.9 46.2,29.8 46.2,29.8 
	46.2,29.8 46.3,29.7 46.3,29.7 46.3,29.6 46.4,29.6 46.4,29.5 46.4,29.5 46.4,29.5 46.5,29.4 46.5,29.4 46.5,29.3 46.6,29.3 
	46.6,29.2 46.6,29.2 46.7,29.1 46.7,29.1 46.7,29.1 46.8,29 46.8,29 46.8,28.9 46.8,28.9 46.9,28.8 46.9,28.8 46.9,28.7 47,28.7 
	47,28.6 47,28.6 47.1,28.5 47.1,28.5 47.1,28.4 47.1,28.4 47.2,28.3 47.2,28.3 47.2,28.3 47.3,28.2 47.3,28.1 47.3,28.1 47.4,28.1 
	47.4,28 47.4,27.9 47.4,27.9 47.5,27.9 47.5,27.8 47.5,27.8 47.6,27.7 47.6,27.6 47.6,27.6 47.7,27.5 47.7,27.5 47.7,27.4 
	47.7,27.4 47.8,27.3 47.8,27.3 47.8,27.2 47.9,27.1 47.9,27.1 47.9,27 48,27 48,26.9 48,26.8 48,26.8 48.1,26.7 48.1,26.7 
	48.1,26.6 48.2,26.5 48.2,26.5 48.2,26.4 48.3,26.3 48.3,26.3 48.3,26.2 48.3,26.1 48.4,26.1 48.4,26 48.4,25.9 48.5,25.9 
	48.5,25.8 48.5,25.7 48.5,25.7 48.6,25.6 48.6,25.5 48.6,25.4 48.7,25.4 48.7,25.3 48.7,25.2 48.8,25.1 48.8,25 48.8,24.9 
	48.8,24.8 48.9,24.8 48.9,24.7 48.9,24.6 49,24.5 49,24.4 49,24.3 49,24.1 49.1,24 49.1,23.9 49.1,23.7 49.1,23.5 49.2,23.4 
	49.2,23.1 49.1,22.1 49.1,21.8 49.1,21.7 49,21.6 49,21.5 48.9,21.4 48.9,21.3 48.9,21.2 48.8,21.2 48.8,21.1 48.8,21 48.7,21 
	48.7,20.9 48.7,20.8 48.6,20.8 48.6,20.7 48.6,20.7 48.5,20.7 48.5,20.6 48.5,20.6 48.4,20.6 48.4,20.5 48.4,20.5 48.3,20.4 
	48.3,20.4 48.3,20.4 48.2,20.3 48.2,20.3 48.2,20.3 48.1,20.2 48.1,20.2 48,20.2 48,20.2 48,20.1 47.9,20.1 47.9,20.1 47.8,20 
	47.8,20 47.7,20 47.7,19.9 47.6,19.9 47.6,19.9 47.5,19.9 47.4,19.8 47.4,19.8 47.3,19.8 47.2,19.7 47.2,19.7 47.1,19.7 47,19.6 
	46.9,19.6 46.8,19.6 46.8,19.6 46.7,19.5 46.6,19.5 46.5,19.5 46.3,19.5 46.2,19.4 46.1,19.4 46,19.4 45.9,19.3 45.7,19.3 
	45.6,19.3 45.4,19.3 45.3,19.2 45.1,19.2 45,19.2 44.8,19.2 44.6,19.1 44.4,19.1 44.2,19.1 44,19.1 43.9,19.1 43.7,19 43.6,19 
	43.5,19 43.3,18.9 43.2,18.9 43.1,18.9 43,18.9 42.9,18.8 42.8,18.8 42.8,18.8 42.7,18.7 42.6,18.7 42.6,18.7 42.5,18.7 42.4,18.6 
	42.4,18.6 42.3,18.6 42.3,18.5 42.3,18.5 42.2,18.5 42.2,18.4 42.1,18.4 42.1,18.4 42.1,18.4 42,18.3 42,18.3 42,18.2 41.9,18.2 
	41.9,18.1 41.9,18.1 41.8,18 41.8,18 41.8,17.9 41.7,17.9 41.7,17.8 41.7,17.7 41.6,17.6 41.6,17.4 41.5,17.3 41.5,17.1 41.5,16.4 
	41.5,16.1 41.5,15.9 41.5,15.8 41.6,15.6 41.6,15.5 41.6,15.4 41.7,15.3 41.7,15.2 41.7,15.1 41.7,15 41.8,14.9 41.8,14.9 
	41.8,14.8 41.9,14.7 41.9,14.6 41.9,14.5 41.9,14.5 42,14.4 42,14.3 42,14.3 42.1,14.2 42.1,14.1 42.1,14.1 42.2,14 42.2,14 
	42.2,13.9 42.2,13.9 42.3,13.8 42.3,13.8 42.3,13.7 42.4,13.7 42.4,13.6 42.4,13.6 42.5,13.5 42.5,13.5 42.5,13.4 42.5,13.4 
	42.6,13.3 42.6,13.3 42.6,13.2 42.7,13.2 42.7,13.1 42.7,13.1 42.8,13.1 42.8,13 42.8,13 42.8,12.9 42.9,12.9 42.9,12.8 42.9,12.8 
	43,12.8 43,12.7 43,12.7 43.1,12.7 43.1,12.6 43.1,12.6 43.2,12.6 43.2,12.5 43.2,12.5 43.2,12.5 43.3,12.4 43.3,12.4 43.3,12.4 
	43.4,12.3 43.4,12.3 43.4,12.3 43.5,12.2 43.5,12.2 43.6,12.2 43.6,12.1 43.6,12.1 43.7,12.1 43.7,12 43.7,12 43.8,12 43.8,11.9 
	43.9,11.9 44.1,11.8 44.2,11.8 44.4,11.8 44.6,11.7 44.8,11.7 45,11.6 45.1,11.6 45.4,11.6 45.6,11.5 45.8,11.5 46.1,11.4 
	46.5,11.4 46.6,11.4 46.7,11.3 46.7,11.3 46.8,11.2 46.8,11.2 46.8,11.2 46.9,11.2 46.9,11.1 46.9,11.1 47,11 47,11 47,11 47.1,11 
	47.1,10.9 47.1,10.9 47.1,10.8 47.2,10.8 47.2,10.8 47.2,10.7 47.3,10.7 47.3,10.6 47.3,10.6 47.4,10.6 47.4,10.5 47.4,10.5 
	47.4,10.4 47.5,10.4 47.5,10.4 47.5,10.4 47.6,10.3 47.6,10.3 47.6,10.2 47.7,10.2 47.7,10.2 47.3,10.2 "/>
<path class="st1" d="M67.1,1.7l-0.2,0.1l-0.2,0.1l-0.2,0.1l-0.2,0.1L66.2,2L66.1,2l-0.2,0.1l-0.2,0.1l-0.2,0.1l-0.2,0.1l-0.2,0.1
	L65,2.4l-0.2,0.1l-0.2,0.1l-0.1,0.1l-0.2,0.1l-0.2,0.1l-0.1,0.1L64,2.7l-0.2,0.1l-0.1,0.1l-0.2,0.1L63.4,3L63.2,3l-0.1,0.1L63,3.1
	l-0.1,0.1l-0.2,0.1l-0.1,0.1l-0.2,0.1l-0.1,0.1l-0.1,0.1L62,3.5l-0.1,0.1l-0.1,0.1l-0.2,0.1l-0.1,0.1l-0.1,0.1l-0.2,0.1l-0.1,0.1
	L61,4L60.9,4l-0.2,0.1l-0.1,0.1l-0.1,0.1l-0.1,0.1l-0.2,0.1l-0.1,0.1L60,4.4l-0.1,0.1l-0.1,0.1l-0.2,0.1l-0.1,0.1l-0.1,0.1l-0.1,0.1
	l-0.1,0.1L59,4.8l-0.2,0.1L58.8,5L58.6,5l-0.1,0.1l-0.1,0.1l-0.1,0.1l-0.1,0.1L58,5.3l-0.1,0.1l-0.1,0.1l-0.1,0.1l-0.1,0.1l-0.1,0.1
	l-0.1,0.1l-0.2,0.1l-0.1,0.1L57,5.8l-0.1,0.1l-0.1,0.1L56.6,6L56.5,6l-0.1,0.1l-0.1,0.1v0.1l0.1,0.1l0.1,0.1l0.1,0.1l0.1,0.2
	l0.1,0.1h0.1l0.1-0.1H57l0.1,0.1l0.2,0.1l0.1,0.1L57.5,7L57.7,7l0.1,0.1l0.1,0.1l0.2,0.1l0.1,0.1l0.1,0.1l0.2,0.1l0.1,0.1l0.1,0.1
	l0.2,0.1L59,7.6l0.1,0.1l0.1,0.1l0.1,0.1l0.1,0.1l0.1,0.1h0.1l0.1-0.1l0.1-0.1l0.1-0.1l0.1-0.1l0.1-0.1l0.1-0.1l0.1-0.1l0,0L60,7.4
	L60,7.3l0.1-0.1l0.1-0.1l0.1-0.1l0.1-0.1l0.2-0.1L60.7,7L60.8,7L61,6.9l0.1-0.1l0.1-0.1l0.2-0.1l0.1-0.1l0.1-0.1l0.1-0.1l0.2-0.1
	l0.2-0.1l0.2-0.1l0.2-0.1l0.2-0.1l0.2-0.1l0.2-0.1l0.1-0.1L63.4,6L63.5,6l0.1-0.1l0.2-0.1l0.1-0.1L64,5.8l0.1-0.1l0.1-0.1l0.1-0.1
	l0.1-0.1l0.1-0.1l0.1-0.1l0.1-0.1l0.1-0.1L65,5.3l0.1-0.1l0.1-0.1l0.1-0.1L65.4,5L65.5,5l0.1-0.1V4.7l-0.1-0.1l-0.1-0.1V4.4l0.1-0.1
	l0.1-0.1l0.2-0.1V4.1L65.8,4l-0.1-0.1l-0.1-0.2l-0.1-0.1h-0.2l-0.1,0.1l-0.2,0.1l0.1-0.1l0.1-0.1l0.1-0.1l0.1-0.1l0.1-0.1l0.1-0.1
	l0.1-0.1L66,3.2l0.1-0.1l0.1-0.1l0.1-0.1L66.4,3L66.5,3l0.1-0.1l0.1-0.1l0.1-0.1l0.1-0.1L67,2.7l0.1-0.1l0.1-0.1l0.1-0.1l0.1-0.1
	l0.1-0.1l0.1-0.1V2.1l-0.1-0.2l-0.1-0.1l-0.1-0.2h-0.2L67.1,1.7z M65.1,3.7L65,3.7L65.1,3.7z M65,3.7l-0.1,0L65,3.7z"/>
<polygon class="st1" points="61.1,9.4 60.7,9.5 60.4,9.5 60.2,9.6 60,9.7 59.9,9.7 59.8,9.8 59.6,9.8 59.5,9.9 59.4,9.9 59.3,10 
	59,10 58.8,10.1 58.5,10.2 58.3,10.2 58,10.3 57.8,10.3 57.5,10.4 57.3,10.4 57.1,10.5 56.9,10.5 56.6,10.6 56.4,10.7 56.2,10.7 
	56,10.8 55.8,10.8 55.6,10.9 55.4,10.9 55.2,11 55.1,11 54.8,11.1 54.7,11.2 54.5,11.2 54.3,11.3 54.2,11.3 53.9,11.4 53.8,11.4 
	53.6,11.5 53.4,11.6 53.3,11.6 53.2,11.7 53,11.7 52.8,11.8 52.7,11.8 52.5,11.9 52.4,11.9 52.2,12 52,12.1 51.9,12.1 51.8,12.2 
	51.6,12.2 51.5,12.3 51.3,12.3 51.2,12.4 51,12.4 50.9,12.5 50.8,12.6 50.6,12.6 50.5,12.7 50.4,12.7 50.2,12.8 50.1,12.8 50,12.9 
	49.8,12.9 49.7,13 49.6,13.1 49.4,13.1 49.3,13.2 49.2,13.2 49.1,13.3 48.9,13.3 48.8,13.4 48.7,13.4 48.6,13.5 48.5,13.6 
	48.3,13.6 48.2,13.7 48.1,13.7 48,13.8 47.8,13.8 47.7,13.9 47.6,14 47.5,14 47.4,14.1 47.3,14.1 47.2,14.2 47.1,14.2 46.9,14.3 
	46.9,14.3 46.8,14.4 46.7,14.4 46.6,14.5 46.4,14.6 46.3,14.6 46.2,14.7 46.1,14.7 46,14.8 45.9,14.8 45.8,14.9 45.7,14.9 45.6,15 
	45.5,15.1 45.4,15.1 45.3,15.2 45.3,15.2 45.1,15.3 45,15.3 44.9,15.4 44.9,15.5 44.8,15.5 44.6,15.6 44.6,15.6 44.5,15.7 
	44.4,15.7 44.3,15.8 44.2,15.8 44.1,15.9 44,16 43.9,16 43.8,16.1 43.7,16.1 43.6,16.2 43.5,16.2 43.5,16.3 43.4,16.3 43.2,16.4 
	43.2,16.5 43.1,16.5 43,16.6 42.9,16.6 42.8,16.7 42.7,16.7 42.6,16.8 42.6,16.8 42.5,16.9 42.4,17 42.3,17 42.2,17.1 42.1,17.1 
	42,17.2 42,17.2 41.8,17.3 41.8,17.3 41.7,17.4 41.6,17.5 41.5,17.5 41.5,17.6 41.3,17.6 41.3,17.7 41.2,17.7 41.1,17.8 41,17.9 
	40.9,17.9 40.8,18 40.7,18 40.7,18.1 40.6,18.1 40.5,18.2 40.4,18.2 40.3,18.3 40.2,18.4 40.2,18.4 40.1,18.5 40,18.5 39.9,18.6 
	39.8,18.6 39.7,18.7 39.7,18.7 39.6,18.8 39.5,18.9 39.4,18.9 39.3,19 39.2,19 39.2,19.1 39,19.1 39,19.2 38.9,19.2 38.8,19.3 
	38.8,19.4 38.7,19.4 38.6,19.5 38.5,19.5 38.4,19.6 38.3,19.6 38.3,19.7 38.1,19.7 38.1,19.8 38,19.9 37.9,19.9 37.8,20 37.8,20 
	37.6,20.1 37.6,20.1 37.5,20.2 37.4,20.2 37.3,20.3 37.2,20.4 37.2,20.4 37.1,20.5 37,20.5 36.9,20.6 36.9,20.6 36.7,20.7 
	36.7,20.8 36.6,20.8 36.5,20.9 36.4,20.9 36.4,21 36.2,21 36.2,21.1 36.1,21.1 36,21.2 35.9,21.2 35.8,21.3 35.7,21.4 35.7,21.4 
	35.6,21.5 35.5,21.5 35.4,21.6 35.3,21.6 35.2,21.7 35.2,21.8 35.1,21.8 35,21.9 34.9,21.9 34.8,22 34.7,22 34.7,22.1 34.6,22.1 
	34.5,22.2 34.4,22.3 34.3,22.3 34.3,22.4 34.2,22.4 34.2,22.5 34.1,22.5 34.1,22.6 34,22.6 33.9,22.7 33.9,22.8 33.8,22.8 
	33.8,22.9 33.7,22.9 33.7,23 33.6,23.1 33.6,23.2 33.5,23.2 33.4,23.3 33.4,23.3 33.3,23.4 33.3,23.5 33.2,23.5 33.2,23.6 
	33.1,23.6 33.1,23.7 33,23.8 32.9,23.8 32.9,23.9 32.8,23.9 32.8,24 32.7,24 32.7,24.1 32.6,24.2 32.5,24.2 32.5,24.3 32.7,24.3 
	32.8,24.2 32.9,24.2 33.1,24.1 33.2,24 33.3,24 33.5,23.9 33.6,23.9 33.8,23.8 33.9,23.8 34.1,23.7 34.2,23.6 34.3,23.6 34.5,23.5 
	34.7,23.5 34.8,23.4 35,23.4 35,23.3 35.1,23.3 35.1,23.2 35.2,23.2 35.2,23.1 35.3,23 35.3,23 35.4,22.9 35.5,22.9 35.5,22.8 
	35.6,22.8 35.6,22.7 35.7,22.6 35.7,22.5 35.8,22.5 35.8,22.4 35.9,22.3 36,22.3 36,22.2 36.1,22.1 36.1,22 36.2,22 36.2,21.9 
	36.3,21.9 36.4,21.8 36.4,21.8 36.5,21.7 36.6,21.6 36.7,21.6 36.7,21.5 36.8,21.5 36.9,21.4 37,21.4 37.1,21.3 37.1,21.2 
	37.2,21.2 37.3,21.1 37.4,21.1 37.5,21 37.6,21 37.6,20.9 37.8,20.9 37.8,20.8 37.9,20.8 38,20.7 38.1,20.6 38.1,20.6 38.3,20.5 
	38.3,20.5 38.4,20.4 38.5,20.4 38.6,20.3 38.7,20.2 38.8,20.2 38.8,20.1 38.9,20.1 39,20 39.1,20 39.2,19.9 39.3,19.9 39.3,19.8 
	39.4,19.7 39.5,19.7 39.6,19.6 39.7,19.6 39.8,19.5 39.9,19.5 39.9,19.4 40.1,19.4 40.1,19.3 40.2,19.2 40.3,19.2 40.4,19.1 
	40.4,19.1 40.6,19 40.7,19 40.7,18.9 40.8,18.9 40.9,18.8 41,18.7 41.1,18.7 41.2,18.6 41.3,18.6 41.3,18.5 41.5,18.5 41.5,18.4 
	41.6,18.4 41.7,18.3 41.8,18.2 41.9,18.2 42,18.1 42.1,18.1 42.2,18 42.2,18 42.3,17.9 42.5,17.9 42.5,17.8 42.6,17.7 42.7,17.7 
	42.8,17.6 42.9,17.6 43,17.5 43.1,17.5 43.2,17.4 43.3,17.3 43.4,17.3 43.5,17.2 43.6,17.2 43.7,17.1 43.8,17.1 43.9,17 44,17 
	44.1,16.9 44.2,16.8 44.3,16.8 44.4,16.7 44.5,16.7 44.6,16.6 44.7,16.6 44.8,16.5 44.9,16.5 45,16.4 45.1,16.3 45.2,16.3 
	45.3,16.2 45.4,16.2 45.5,16.1 45.6,16.1 45.8,16 45.9,16 46,15.9 46.1,15.8 46.2,15.8 46.3,15.7 46.5,15.7 46.6,15.6 46.7,15.6 
	46.8,15.5 46.9,15.5 47.1,15.4 47.2,15.3 47.3,15.3 47.4,15.2 47.6,15.2 47.7,15.1 47.8,15.1 48,15 48.1,14.9 48.2,14.9 48.4,14.8 
	48.5,14.8 48.7,14.7 48.8,14.7 49,14.6 49.1,14.6 49.2,14.5 49.4,14.4 49.5,14.4 49.6,14.3 49.8,14.3 50,14.2 50.1,14.2 50.2,14.1 
	50.4,14.1 50.6,14 50.7,14 50.9,13.9 51,13.8 51.2,13.8 51.4,13.7 51.5,13.7 51.7,13.6 51.9,13.6 52,13.5 52.2,13.4 52.4,13.4 
	52.5,13.3 52.7,13.3 52.9,13.2 53.1,13.2 53.3,13.1 53.5,13.1 53.7,13 53.9,12.9 54.1,12.9 54.3,12.8 54.5,12.8 54.7,12.7 
	54.9,12.7 55.1,12.6 55.3,12.6 55.6,12.5 55.8,12.4 56,12.4 56.2,12.3 56.3,12.3 56.2,12.4 56.1,12.4 56.1,12.5 56,12.6 56,12.6 
	55.9,12.7 55.9,12.7 55.8,12.8 55.7,12.8 55.7,12.9 55.6,12.9 55.6,13 55.5,13.1 55.5,13.1 55.4,13.2 55.3,13.2 55.3,13.3 
	55.2,13.3 55.2,13.4 55.1,13.4 55.1,13.5 55,13.6 55,13.6 54.9,13.7 54.8,13.8 54.8,13.8 54.7,13.9 54.7,14 54.6,14 54.6,14.1 
	54.5,14.1 54.5,14.2 54.4,14.2 54.3,14.3 54.3,14.4 54.2,14.4 54.2,14.5 54.1,14.6 54.1,14.6 54,14.7 53.9,14.8 53.9,14.8 
	53.8,14.9 53.8,14.9 53.7,15.1 53.7,15.1 53.6,15.2 53.5,15.2 53.5,15.3 53.4,15.4 53.4,15.5 53.3,15.6 53.3,15.6 53.2,15.7 
	53.2,15.8 53.1,15.8 53.1,16 53,16 52.9,16.1 52.9,16.2 52.8,16.3 52.8,16.4 52.7,16.5 52.7,16.6 52.6,16.7 52.5,16.7 52.5,16.8 
	52.4,17 52.4,17 52.3,17.1 52.3,17.2 52.2,17.3 52.1,17.5 52.1,17.6 52,17.7 52,17.7 51.9,17.9 51.9,18 51.8,18.1 51.8,18.2 
	51.7,18.4 51.6,18.5 51.6,18.6 51.5,18.7 51.5,18.9 51.4,19 51.4,19.1 51.3,19.2 51.3,19.4 51.2,19.6 51.1,19.7 51.1,19.9 51,20.1 
	51,20.2 50.9,20.5 50.9,20.6 50.8,20.9 50.8,21.2 50.7,21.5 50.6,22.1 50.6,22.6 50.7,23.2 50.8,23.5 50.8,23.6 50.9,23.9 50.9,24 
	51,24.2 51,24.3 51.1,24.4 51.1,24.5 51.2,24.6 51.3,24.7 51.3,24.8 51.4,24.8 51.4,24.9 51.5,25 51.5,25 51.6,25.1 51.6,25.2 
	51.7,25.2 51.8,25.3 51.8,25.3 51.9,25.4 52,25.4 52,25.5 52.1,25.5 52.1,25.6 52.3,25.7 52.3,25.7 52.4,25.8 52.5,25.8 52.7,25.9 
	52.7,25.9 52.8,26 53,26 53.1,26.1 53.2,26.2 53.4,26.2 53.5,26.3 53.7,26.3 53.9,26.4 54.1,26.4 54.3,26.5 54.6,26.5 54.8,26.6 
	55.1,26.7 55.3,26.7 55.6,26.8 55.9,26.8 56.1,26.9 56.4,26.9 56.6,27 56.9,27.1 57.1,27.1 57.4,27.2 57.6,27.2 57.9,27.3 
	58.1,27.3 58.3,27.4 58.5,27.4 58.7,27.5 58.9,27.6 59.1,27.6 59.3,27.7 59.4,27.7 59.5,27.8 59.7,27.8 59.9,27.9 60,27.9 60.2,28 
	60.3,28.1 60.4,28.1 60.5,28.2 60.6,28.2 60.7,28.3 60.8,28.3 61,28.4 61.1,28.4 61.1,28.5 61.2,28.6 61.3,28.6 61.4,28.7 
	61.5,28.7 61.6,28.8 61.6,28.8 61.7,28.9 61.8,28.9 61.8,29 61.9,29.1 62,29.1 62,29.2 62.1,29.2 62.1,29.3 62.2,29.3 62.2,29.4 
	62.3,29.5 62.3,29.5 62.4,29.6 62.5,29.6 62.5,29.7 62.6,29.8 62.6,29.8 62.7,30 62.7,30 62.8,30.1 62.9,30.2 62.9,30.3 63,30.4 
	63,30.5 63.1,30.6 63.1,30.8 63.2,30.9 63.2,31.1 63.3,31.3 63.4,31.5 63.4,31.7 63.5,32.1 63.5,33.9 63.4,34.4 63.4,34.7 63.3,35 
	63.2,35.3 63.2,35.5 63.1,35.8 63.1,36 63,36.2 63,36.4 62.9,36.6 62.9,36.8 62.8,36.9 62.7,37.1 62.7,37.3 62.6,37.4 62.6,37.6 
	62.5,37.8 62.5,37.9 62.4,38 62.3,38.1 62.3,38.3 62.2,38.4 62.2,38.6 62.1,38.7 62.1,38.8 62,39 62,39.1 61.9,39.2 61.8,39.3 
	61.8,39.4 61.7,39.5 61.7,39.7 61.6,39.8 61.6,39.9 61.5,40 61.5,40.1 61.4,40.2 61.3,40.3 61.3,40.4 61.2,40.5 61.2,40.7 
	61.1,40.8 61.1,40.9 61,40.9 61,41 60.9,41.2 60.8,41.3 60.8,41.3 60.7,41.4 60.7,41.5 60.6,41.6 60.6,41.7 60.5,41.8 60.4,41.9 
	60.4,42 60.3,42.1 60.3,42.2 60.2,42.3 60.2,42.3 60.1,42.4 60,42.5 60,42.6 59.9,42.7 59.9,42.8 59.8,42.9 59.8,42.9 59.7,43 
	59.7,43.1 59.6,43.2 59.5,43.3 59.5,43.3 59.4,43.4 59.4,43.5 59.3,43.6 59.3,43.7 59.2,43.7 59.2,43.8 59.1,43.9 59,43.9 59,44.1 
	58.9,44.1 58.9,44.2 58.8,44.3 58.8,44.3 58.7,44.4 58.6,44.5 58.6,44.6 58.5,44.6 58.5,44.7 58.4,44.8 58.4,44.8 58.3,44.9 
	58.3,45 58.2,45.1 58.1,45.1 58.1,45.2 58,45.2 58,45.3 57.9,45.4 57.9,45.5 57.8,45.5 57.8,45.6 57.7,45.7 57.6,45.7 57.6,45.8 
	57.5,45.8 57.5,45.9 57.4,46 57.4,46 57.3,46.1 57.2,46.2 57.2,46.2 57.1,46.3 57.1,46.3 57,46.4 57,46.5 56.9,46.5 56.9,46.6 
	56.8,46.6 56.7,46.7 56.7,46.8 56.6,46.8 56.6,46.9 56.5,47 56.5,47 56.4,47.1 56.4,47.1 56.3,47.2 56.2,47.2 56.2,47.3 56.1,47.3 
	56.1,47.4 56,47.5 56,47.5 55.9,47.6 55.9,47.6 55.8,47.7 55.7,47.7 55.7,47.8 55.6,47.9 55.6,47.9 55.5,48 55.5,48 55.3,48.1 
	55.3,48.1 55.2,48.2 55.2,48.2 55.1,48.3 55.1,48.3 55,48.4 55,48.5 54.9,48.5 54.8,48.6 54.7,48.6 54.7,48.7 54.6,48.7 54.6,48.8 
	54.5,48.9 54.5,48.9 54.3,49 54.3,49 54.2,49.1 54.2,49.1 54.1,49.2 54.1,49.2 53.9,49.3 53.9,49.4 53.8,49.4 53.8,49.5 53.7,49.5 
	53.6,49.6 53.5,49.6 53.5,49.7 53.4,49.7 53.3,49.8 53.3,49.9 53.2,49.9 53.2,50 53.1,50 53.1,50.1 53,50.1 52.9,50.2 52.9,50.2 
	52.8,50.3 52.8,50.4 52.7,50.5 52.7,50.5 52.6,50.6 52.5,50.6 52.5,50.7 52.4,50.7 52.4,50.8 52.3,50.9 52.3,51 52.2,51 52.1,51.1 
	52.1,51.1 52,51.2 52,51.3 51.9,51.3 51.9,51.4 51.8,51.5 51.7,51.5 51.6,51.6 51.6,51.6 51.8,51.6 51.9,51.6 51.9,51.5 52,51.5 
	52.1,51.4 52.1,51.4 52.2,51.3 52.3,51.3 52.4,51.2 52.4,51.1 52.5,51.1 52.5,51 52.6,51 52.7,50.9 52.8,50.9 52.8,50.8 52.9,50.7 
	52.9,50.7 53.1,50.6 53.1,50.6 53.2,50.5 53.2,50.5 53.3,50.4 53.3,50.4 53.4,50.3 53.5,50.2 53.5,50.2 53.6,50.1 53.7,50.1 
	53.7,50 53.8,50 53.8,49.9 53.9,49.9 54,49.8 54.1,49.7 54.1,49.7 54.2,49.6 54.2,49.6 54.3,49.5 54.3,49.5 54.4,49.4 54.5,49.4 
	54.6,49.3 54.6,49.2 54.7,49.2 54.7,49.1 54.8,49.1 54.8,49 54.9,49 55,48.9 55,48.9 55.1,48.8 55.1,48.7 55.2,48.7 55.2,48.6 
	55.3,48.6 55.3,48.5 55.4,48.5 55.5,48.4 55.5,48.3 55.6,48.3 55.6,48.2 55.7,48.2 55.7,48.1 55.8,48.1 55.9,48 55.9,48 56,47.9 
	56,47.9 56.1,47.8 56.1,47.7 56.2,47.7 56.2,47.6 56.3,47.6 56.4,47.5 56.4,47.5 56.5,47.4 56.5,47.3 56.6,47.3 56.6,47.2 
	56.7,47.2 56.7,47.1 56.8,47.1 56.9,47 56.9,47 57,46.9 57,46.8 57.1,46.8 57.1,46.7 57.2,46.7 57.2,46.6 57.3,46.6 57.4,46.5 
	57.4,46.4 57.5,46.3 57.5,46.3 57.6,46.2 57.6,46.2 57.7,46.1 57.8,46.1 57.8,46 57.9,46 57.9,45.8 58,45.8 58,45.7 58.1,45.7 
	58.1,45.6 58.2,45.6 58.3,45.5 58.3,45.4 58.4,45.3 58.4,45.3 58.5,45.2 58.5,45.2 58.6,45.1 58.6,45.1 58.7,45 58.8,44.9 
	58.8,44.8 58.9,44.8 58.9,44.7 59,44.6 59,44.6 59.1,44.5 59.2,44.4 59.2,44.4 59.3,44.3 59.3,44.2 59.4,44.2 59.4,44.1 59.5,44.1 
	59.5,43.9 59.6,43.9 59.7,43.8 59.7,43.8 59.8,43.7 59.8,43.6 59.9,43.6 59.9,43.4 60,43.4 60,43.3 60.1,43.3 60.2,43.2 60.2,43.1 
	60.3,43.1 60.3,42.9 60.4,42.9 60.4,42.8 60.5,42.7 60.6,42.7 60.6,42.6 60.7,42.5 60.7,42.4 60.8,42.4 60.8,42.3 60.9,42.2 
	61,42.2 61,42 61.1,42 61.1,41.9 61.2,41.8 61.2,41.8 61.3,41.7 61.3,41.6 61.4,41.5 61.5,41.4 61.5,41.3 61.6,41.3 61.6,41.2 
	61.7,41.1 61.7,41 61.8,40.9 61.8,40.9 61.9,40.8 62,40.7 62,40.6 62.1,40.5 62.1,40.4 62.2,40.4 62.2,40.3 62.3,40.2 62.3,40.1 
	62.4,40 62.5,39.9 62.5,39.8 62.6,39.7 62.6,39.7 62.7,39.5 62.7,39.4 62.8,39.4 62.9,39.3 62.9,39.2 63,39.1 63,39 63.1,38.9 
	63.1,38.8 63.2,38.7 63.2,38.6 63.3,38.5 63.4,38.4 63.4,38.3 63.5,38.2 63.5,38.1 63.6,38 63.6,37.9 63.7,37.8 63.7,37.6 
	63.8,37.5 63.9,37.4 63.9,37.3 64,37.2 64,37.1 64.1,37 64.1,36.9 64.2,36.8 64.3,36.6 64.3,36.5 64.4,36.4 64.4,36.3 64.5,36.1 
	64.5,36 64.6,35.9 64.6,35.7 64.7,35.6 64.8,35.5 64.8,35.3 64.9,35.1 64.9,35 65,34.9 65,34.7 65.1,34.5 65.1,34.3 65.2,34.1 
	65.3,34 65.3,33.7 65.4,33.5 65.4,33.3 65.5,33 65.5,32.7 65.6,32.4 65.7,32 65.7,30.2 65.6,29.8 65.5,29.6 65.5,29.3 65.4,29.1 
	65.4,28.9 65.3,28.8 65.3,28.7 65.2,28.6 65.1,28.4 65.1,28.3 65,28.2 65,28.1 64.9,28 64.9,27.9 64.8,27.8 64.8,27.8 64.7,27.7 
	64.6,27.6 64.6,27.6 64.5,27.5 64.5,27.4 64.4,27.3 64.4,27.3 64.3,27.2 64.3,27.2 64.2,27.1 64.1,27.1 64.1,27 64,26.9 63.9,26.9 
	63.9,26.8 63.8,26.8 63.7,26.7 63.6,26.7 63.6,26.6 63.5,26.5 63.4,26.5 63.4,26.4 63.2,26.4 63.1,26.3 63.1,26.3 63,26.2 
	62.9,26.2 62.7,26.1 62.6,26 62.5,26 62.4,25.9 62.3,25.9 62.1,25.8 62,25.8 61.8,25.7 61.7,25.7 61.6,25.6 61.4,25.5 61.2,25.5 
	61,25.4 60.8,25.4 60.6,25.3 60.4,25.3 60.2,25.2 59.9,25.2 59.7,25.1 59.4,25 59.2,25 58.9,24.9 58.6,24.9 58.3,24.8 58,24.8 
	57.7,24.7 57.4,24.7 57,24.6 56.7,24.5 56.5,24.5 56.2,24.4 56,24.4 55.8,24.3 55.6,24.3 55.5,24.2 55.3,24.2 55.1,24.1 55,24 
	54.8,24 54.7,23.9 54.6,23.9 54.5,23.8 54.4,23.8 54.3,23.7 54.2,23.6 54.1,23.6 54.1,23.5 54,23.5 53.9,23.4 53.8,23.4 53.8,23.3 
	53.7,23.3 53.7,23.2 53.6,23.2 53.5,23.1 53.5,23 53.4,22.9 53.4,22.8 53.3,22.8 53.3,22.6 53.2,22.5 53.2,22.4 53.1,22.3 
	53.1,22.1 53,22 52.9,21.8 52.9,21.6 52.8,21.3 52.8,20.9 52.8,19.7 52.8,19.2 52.9,19 52.9,18.7 53,18.5 53.1,18.2 53.1,18.1 
	53.2,17.9 53.2,17.7 53.3,17.5 53.3,17.4 53.4,17.2 53.4,17.1 53.5,17 53.5,16.8 53.6,16.7 53.7,16.6 53.7,16.5 53.8,16.3 
	53.8,16.2 53.9,16.1 53.9,16 54,15.9 54.1,15.8 54.1,15.7 54.2,15.6 54.2,15.5 54.3,15.4 54.3,15.3 54.4,15.2 54.5,15.1 54.5,15.1 
	54.6,14.9 54.6,14.9 54.7,14.8 54.7,14.7 54.8,14.6 54.8,14.6 54.9,14.5 55,14.4 55,14.3 55.1,14.2 55.1,14.2 55.2,14.1 55.2,14.1 
	55.3,14 55.3,13.9 55.4,13.8 55.5,13.8 55.5,13.7 55.6,13.6 55.6,13.6 55.7,13.5 55.7,13.4 55.8,13.4 55.9,13.3 55.9,13.3 56,13.2 
	56,13.2 56.1,13.1 56.1,13.1 56.2,13 56.2,12.9 56.3,12.9 56.4,12.8 56.4,12.8 56.5,12.7 56.5,12.7 56.6,12.6 56.7,12.6 56.7,12.5 
	56.8,12.4 56.9,12.4 57,12.3 57,12.3 57.1,12.2 57.2,12.2 57.3,12.1 57.6,12.1 57.9,12 58.1,11.9 58.5,11.9 58.8,11.8 59.2,11.8 
	59.5,11.7 59.9,11.7 60.3,11.6 60.7,11.6 61.2,11.5 61.8,11.4 62.1,11.4 62.2,11.3 62.3,11.3 62.3,11.2 62.4,11.2 62.5,11.1 
	62.5,11 62.6,11 62.6,10.9 62.7,10.9 62.7,10.8 62.8,10.8 62.9,10.7 62.9,10.7 63,10.6 63,10.5 63.1,10.4 63.1,10.4 63.2,10.3 
	63.2,10.3 63.3,10.2 63.4,10.1 63.4,10 63.5,10 63.5,9.9 63.6,9.9 63.6,9.8 63.7,9.8 63.7,9.7 63.8,9.7 63.9,9.5 63.9,9.5 64,9.4 
	64,9.4 63.3,9.4 "/>
<path class="st2" d="M147.2,41.8h-8.3c-2.7,0-5.2-0.4-7.3-1.3c-3-1.3-4.5-3.1-4.5-5.6c0-2.5,1.5-4.3,4.5-5.5
	c2.2-0.9,4.6-1.4,7.3-1.4h8.3c0.6,0,1.1,0.1,1.7,0.3c0.8,0.2,1.2,0.6,1.2,1.1c0,0.5-0.4,0.8-1.2,1.1c-0.6,0.2-1.1,0.3-1.7,0.3h-5.7
	c-1.7,0-3.2,0.3-4.4,0.8c-1.7,0.7-2.5,1.9-2.5,3.5s0.9,2.8,2.5,3.5c1.2,0.5,2.7,0.8,4.4,0.8h5.8c0.6,0,1.1,0.1,1.7,0.3
	c0.8,0.2,1.2,0.6,1.2,1.1c0,0.4-0.4,0.8-1.2,1.1C148.3,41.7,147.7,41.8,147.2,41.8 M116.9,32.5v-0.9c0-0.4-0.3-0.8-0.9-1
	c-0.4-0.2-0.9-0.3-1.4-0.3h-10.1c-0.6,0-1.1-0.1-1.7-0.2c-0.8-0.2-1.2-0.6-1.2-1c0-0.5,0.4-0.8,1.1-1c0.5-0.2,1-0.3,1.6-0.3H117
	c1.6,0,3.1,0.3,4.6,0.8c2,0.7,3,1.8,3,3.3v7.8c0,0.7-0.5,1.2-1.5,1.6c-0.7,0.3-1.5,0.4-2.3,0.4c-0.8,0-1.6-0.1-2.3-0.4
	c-1-0.3-1.6-0.9-1.6-1.6v-3.6c0-0.4-0.3-0.7-0.9-1c-0.4-0.2-0.9-0.3-1.4-0.3h-5.7c-0.5,0-0.9,0.1-1.4,0.3c-0.6,0.2-0.9,0.6-0.9,1
	v1.7c0,0.4,0.3,0.7,0.9,1c0.4,0.2,0.9,0.3,1.4,0.3h2.8c0.5,0,1.1,0.1,1.7,0.3c0.8,0.2,1.2,0.6,1.2,1.1c0,0.4-0.4,0.8-1.2,1.1
	c-0.6,0.2-1.1,0.3-1.7,0.3h-5.2c-1.6,0-3.1-0.3-4.6-0.8c-2-0.7-3-1.8-3-3.3v-1.1c0-1.4,1-2.5,3-3.3c1.5-0.5,3-0.8,4.6-0.8
	L116.9,32.5L116.9,32.5z M81.5,30.9l8.2,9.9c0.5,0.7,1.6,1,3.1,1c0.9,0,1.7-0.1,2.4-0.4c1.1-0.4,1.6-0.9,1.6-1.7
	c0-0.3-0.1-0.6-0.4-0.9l-8.1-9.9c-0.5-0.7-1.6-1-3.1-1c-0.9,0-1.7,0.1-2.4,0.4c-1.1,0.4-1.6,0.9-1.6,1.7
	C81.2,30.3,81.3,30.6,81.5,30.9z M63.3,41.5c0.6,0.2,1.3,0.3,2.1,0.3c1.6,0,2.6-0.3,3.1-1l6.2-7.9l3.6,4.2c0.4,0.5,1.1,0.7,2.1,0.7
	c0.5,0,1.1-0.1,1.6-0.3c0.7-0.2,1.1-0.6,1.1-1.1c0-0.2-0.1-0.4-0.2-0.6L76.6,29c-0.1-0.1-0.3-0.2-0.5-0.3c-0.8-0.5-1.9-0.8-3.2-0.8
	c-1.5,0-2.6,0.3-3.1,1l-8.1,9.9c-0.2,0.3-0.4,0.6-0.4,0.9C61.3,40.5,62,41.1,63.3,41.5z M41.2,41.5c-1.4-0.4-2.1-1-2.1-1.8
	c0-0.3,0.2-0.6,0.5-0.9l9.6-8.4h-6.8c-1.2,0-2,0-2.4-0.1c-0.8-0.2-1.2-0.5-1.2-1.1c0-0.9,1.2-1.4,3.6-1.4h11.4
	c1.3,0,2.3,0.2,3.2,0.6c0.8,0.4,1.3,0.9,1.3,1.5c0,0.3-0.2,0.6-0.5,0.9l-9.6,8.3h7.6c1.2,0,2.3,0.3,3.5,0.9c0.1,0.1,0.1,0.2,0.1,0.4
	c0,0.5-0.4,0.9-1.2,1.1c-0.4,0.1-1.2,0.1-2.4,0.1H43.2C42.5,41.8,41.8,41.7,41.2,41.5z M32,41.8c-0.8,0-1.6-0.1-2.3-0.4
	c-1-0.3-1.6-0.9-1.6-1.6v-10c0-0.7,0.5-1.2,1.6-1.6c0.7-0.3,1.5-0.4,2.3-0.4s1.6,0.1,2.3,0.4c1,0.3,1.6,0.9,1.6,1.6v10
	c0,0.7-0.5,1.2-1.5,1.6C33.5,41.6,32.8,41.8,32,41.8z M18,31.3c0-0.6-0.8-0.9-2.3-0.9h-5.7c-1.5,0-2.3,0.3-2.3,0.9v0.3
	c0,0.6,0.8,0.9,2.3,0.9h5.7c1.5,0,2.3-0.3,2.3-0.9L18,31.3L18,31.3z M18.2,41.8h-5.2c-0.5,0-1.1-0.1-1.7-0.3
	c-0.8-0.3-1.2-0.6-1.2-1.1c0-0.5,0.4-0.8,1.2-1.1c0.6-0.2,1.1-0.3,1.7-0.3h2.8c0.5,0,0.9-0.1,1.4-0.3c0.6-0.2,0.9-0.6,0.9-1v-1.7
	c0-0.4-0.3-0.7-0.9-1c-0.4-0.2-0.9-0.3-1.4-0.3h-5.7c-0.5,0-0.9,0.1-1.4,0.3c-0.6,0.2-0.9,0.6-0.9,1v3.6c0,0.7-0.5,1.2-1.6,1.6
	c-0.8,0.3-1.5,0.4-2.3,0.4c-0.8,0-1.6-0.1-2.3-0.4C0.5,41,0,40.5,0,39.8V32c0,0,0-0.1,0-0.3c0.2-1.3,1.2-2.3,3.1-3
	c1.4-0.5,2.9-0.8,4.4-0.8h9.7c3.2,0,5.6,0.5,7,1.6c0.8,0.6,1.2,1.2,1.2,1.9c0,1.1-0.5,2-1.5,2.5c1.2,0.7,1.8,1.6,1.8,2.6v1.1
	c0,1.4-1,2.5-3,3.3C21.3,41.5,19.8,41.8,18.2,41.8z"/>
<path class="st3" d="M149.5,15.7v0.9c0,0.1,0,0.3-0.1,0.4c-0.1,0.1-0.1,0.2-0.2,0.3c-0.1,0.1-0.2,0.1-0.3,0.1
	c-0.1,0-0.2,0.1-0.4,0.1c-0.1,0-0.2,0-0.4,0c-0.3,0-0.7,0-1.2-0.1v-0.5c0.5,0.1,0.9,0.1,1.2,0.1c0.2,0,0.4,0,0.6-0.1
	c0.1-0.1,0.2-0.2,0.2-0.4v-0.8c0-0.1,0-0.2-0.1-0.2c0-0.1-0.1-0.1-0.2-0.1c-0.1,0-0.1,0-0.2,0c-0.1,0-0.1,0-0.2,0h-1.2v-2h2.3v0.4
	h-1.8V15h0.9c0.2,0,0.3,0,0.4,0.1c0.1,0,0.2,0.1,0.4,0.2C149.5,15.4,149.5,15.6,149.5,15.7 M145,16.5v-2.1c0-0.3-0.1-0.5-0.2-0.6
	c-0.1-0.1-0.3-0.1-0.7-0.1c-0.3,0-0.5,0-0.7,0.1c-0.1,0.1-0.2,0.3-0.2,0.6v2.1c0,0.3,0.1,0.4,0.2,0.5s0.4,0.1,0.7,0.1s0.5,0,0.7-0.1
	S145,16.8,145,16.5z M145.6,14.4v2.1c0,0.2,0,0.3-0.1,0.5c-0.1,0.1-0.1,0.2-0.2,0.3c-0.1,0.1-0.2,0.1-0.3,0.2
	c-0.1,0-0.3,0.1-0.4,0.1c-0.1,0-0.3,0-0.4,0s-0.3,0-0.4,0c-0.1,0-0.2,0-0.4-0.1c-0.1,0-0.2-0.1-0.3-0.2c-0.1-0.1-0.1-0.2-0.2-0.3
	c-0.1-0.1-0.1-0.3-0.1-0.5v-2c0-0.2,0-0.4,0.1-0.5c0.1-0.1,0.1-0.2,0.2-0.3c0.1-0.1,0.2-0.1,0.3-0.2c0.1,0,0.3-0.1,0.4-0.1
	c0.1,0,0.3,0,0.4,0c0.2,0,0.3,0,0.4,0s0.2,0,0.4,0.1c0.1,0,0.2,0.1,0.3,0.2c0.1,0.1,0.2,0.2,0.2,0.3
	C145.5,14.1,145.6,14.2,145.6,14.4z M140.8,16.5v-2.1c0-0.3-0.1-0.5-0.2-0.6c-0.1-0.1-0.3-0.1-0.7-0.1c-0.3,0-0.5,0-0.7,0.1
	c-0.1,0.1-0.2,0.3-0.2,0.6v2.1c0,0.3,0.1,0.4,0.2,0.5s0.4,0.1,0.7,0.1s0.5,0,0.7-0.1S140.8,16.8,140.8,16.5z M141.4,14.4v2.1
	c0,0.2,0,0.3-0.1,0.5c-0.1,0.1-0.1,0.2-0.2,0.3c-0.1,0.1-0.2,0.1-0.3,0.2c-0.1,0-0.3,0.1-0.4,0.1c-0.1,0-0.3,0-0.4,0s-0.3,0-0.4,0
	c-0.1,0-0.2,0-0.4-0.1c-0.1,0-0.2-0.1-0.3-0.2s-0.1-0.2-0.2-0.3c-0.1-0.1-0.1-0.3-0.1-0.5v-2c0-0.2,0-0.4,0.1-0.5
	c0.1-0.1,0.1-0.2,0.2-0.3c0.1-0.1,0.2-0.1,0.3-0.2c0.1,0,0.3-0.1,0.4-0.1c0.1,0,0.3,0,0.4,0c0.2,0,0.3,0,0.4,0c0.1,0,0.2,0,0.4,0.1
	c0.1,0,0.2,0.1,0.3,0.2c0.1,0.1,0.2,0.2,0.2,0.3C141.4,14.1,141.4,14.2,141.4,14.4z M137.2,17.5h-2.7v-0.7c0-0.1,0-0.2,0.1-0.3
	c0-0.1,0.1-0.2,0.1-0.3c0.1-0.1,0.1-0.1,0.2-0.2c0.1-0.1,0.2-0.1,0.3-0.2c0.1,0,0.2-0.1,0.3-0.1l0.7-0.3c0.3-0.1,0.4-0.3,0.4-0.5
	v-0.6c0-0.2-0.1-0.3-0.2-0.4c-0.1-0.1-0.3-0.1-0.6-0.1c-0.3,0-0.7,0-1.2,0.1v-0.4c0.4-0.1,0.9-0.1,1.3-0.1c0.4,0,0.8,0.1,1,0.2
	c0.2,0.1,0.3,0.4,0.3,0.7v0.7c0,0.2-0.1,0.4-0.2,0.5c-0.1,0.1-0.3,0.2-0.6,0.4l-0.9,0.4c-0.3,0.1-0.4,0.3-0.4,0.5V17h2.1L137.2,17.5
	L137.2,17.5z M131.4,15.7v-0.5c0-0.2-0.1-0.3-0.2-0.4c-0.1-0.1-0.3-0.1-0.6-0.1c-0.3,0-0.4,0-0.6,0.1c-0.1,0.1-0.2,0.2-0.2,0.4v0.5
	L131.4,15.7L131.4,15.7z M132,16.1h-2v0.5c0,0.2,0.1,0.4,0.2,0.5c0.1,0.1,0.4,0.1,0.7,0.1c0.3,0,0.6-0.1,1-0.1v0.4
	c-0.4,0.1-0.7,0.1-1.1,0.1c-0.9,0-1.4-0.3-1.4-0.9v-1.2c0-0.4,0.1-0.6,0.3-0.8c0.2-0.2,0.6-0.2,1-0.2c0.4,0,0.8,0.1,1,0.2
	c0.2,0.1,0.3,0.4,0.3,0.8L132,16.1L132,16.1z M128.2,17.4c-0.3,0.1-0.6,0.1-1,0.1c-0.2,0-0.3,0-0.4,0c-0.1,0-0.2,0-0.3-0.1
	c-0.1,0-0.2-0.1-0.3-0.2c-0.1-0.1-0.1-0.2-0.2-0.3c-0.1-0.1-0.1-0.3-0.1-0.5v-1.1c0-0.2,0-0.3,0.1-0.4c0-0.1,0.1-0.2,0.1-0.3
	c0.1-0.1,0.1-0.1,0.2-0.2c0.1,0,0.2-0.1,0.3-0.1c0.1,0,0.2,0,0.3,0c0.1,0,0.2,0,0.4,0c0.3,0,0.6,0,0.9,0.1v0.4
	c-0.3-0.1-0.6-0.1-0.9-0.1c-0.3,0-0.5,0-0.6,0.1c-0.1,0.1-0.1,0.2-0.1,0.5v1.2c0,0.2,0.1,0.4,0.2,0.4c0.1,0.1,0.3,0.1,0.7,0.1
	c0.3,0,0.6,0,0.9-0.1L128.2,17.4L128.2,17.4L128.2,17.4z M124.6,17.5H124v-2.2c0-0.1,0-0.1,0-0.2c0-0.1,0-0.1-0.1-0.2
	c0-0.1-0.1-0.1-0.2-0.1c-0.1,0-0.2,0-0.3,0c-0.3,0-0.5,0-0.7,0.1c-0.1,0.1-0.2,0.2-0.2,0.4v2.2H122v-3h0.6v0.4
	c0.1-0.3,0.4-0.4,1-0.4c0.4,0,0.7,0.1,0.8,0.2c0.1,0.1,0.2,0.4,0.2,0.7L124.6,17.5L124.6,17.5z M120.5,17.5h-0.6v-3h0.6V17.5z
	 M120.5,13.9h-0.6v-0.6h0.6V13.9z M118.5,16.1v0.3c0,0.4-0.1,0.7-0.4,0.9c-0.2,0.2-0.6,0.2-1.1,0.2c-0.3,0-0.7,0-1.2-0.1v-0.5
	c0.5,0.1,0.9,0.2,1.3,0.2c0.3,0,0.5,0,0.7-0.1c0.1-0.1,0.2-0.2,0.2-0.4v-0.5c0-0.2-0.1-0.3-0.1-0.4c-0.1-0.1-0.3-0.1-0.5-0.1h-0.5
	c-0.4,0-0.7-0.1-0.9-0.2c-0.2-0.2-0.2-0.4-0.2-0.7v-0.3c0-0.3,0.1-0.6,0.3-0.7s0.6-0.2,1.3-0.2c0.3,0,0.6,0,1,0.1v0.5
	c-0.5-0.1-0.8-0.1-1.1-0.1c-0.4,0-0.6,0-0.8,0.1c-0.1,0.1-0.2,0.2-0.2,0.4v0.5c0,0.1,0.1,0.2,0.1,0.3c0.1,0.1,0.3,0.1,0.5,0.1h0.5
	c0.4,0,0.7,0.1,0.9,0.2C118.5,15.5,118.5,15.8,118.5,16.1z"/>
<path class="st3" d="M148.8,48.5v-1.8c0-0.3-0.1-0.4-0.2-0.5c-0.1-0.1-0.4-0.1-0.9-0.1c-0.4,0-0.7,0.1-0.8,0.1
	c-0.1,0.1-0.2,0.3-0.2,0.5v1.8c0,0.3,0.1,0.5,0.2,0.5c0.1,0.1,0.4,0.1,0.8,0.1c0.4,0,0.7,0,0.8-0.1
	C148.7,48.9,148.8,48.8,148.8,48.5 M149.6,45.5V50c0,0.6-0.2,1-0.5,1.2s-0.8,0.3-1.4,0.3c-0.6,0-1,0-1.4-0.1v-0.5
	c0.6,0.1,1.1,0.1,1.5,0.1c0.4,0,0.7-0.1,0.8-0.2s0.3-0.3,0.3-0.6v-1c0,0.2-0.1,0.3-0.4,0.4s-0.5,0.1-0.9,0.1c-0.6,0-1.1-0.1-1.3-0.3
	c-0.2-0.2-0.3-0.5-0.3-1v-1.7c0-0.5,0.1-0.8,0.4-1c0.3-0.2,0.7-0.3,1.3-0.3c0.7,0,1.1,0.2,1.2,0.5v-0.4L149.6,45.5L149.6,45.5
	L149.6,45.5z M144.8,49.6h-0.7v-2.9c0-0.1,0-0.2,0-0.3c0-0.1-0.1-0.1-0.1-0.2c-0.1-0.1-0.1-0.1-0.3-0.2c-0.1,0-0.3-0.1-0.5-0.1
	c-0.4,0-0.7,0.1-0.9,0.1c-0.1,0.1-0.2,0.3-0.2,0.5v2.9h-0.8v-4.1h0.8v0.5c0.1-0.4,0.5-0.6,1.3-0.6c0.5,0,0.9,0.1,1.1,0.3
	s0.3,0.5,0.3,0.9L144.8,49.6L144.8,49.6z M140,49.6h-0.8v-4.1h0.8V49.6z M140,44.9h-0.8v-0.8h0.8V44.9z M138,49.6h-0.8v-5.9h0.8
	V49.6z M135.9,49.6h-0.8v-4.1h0.8V49.6z M135.9,44.9h-0.8v-0.8h0.8V44.9z M133.1,48.8v-1.1h-1.2c-0.3,0-0.6,0-0.7,0.1
	c-0.1,0.1-0.1,0.3-0.1,0.6c0,0.3,0,0.5,0.1,0.6c0.1,0.1,0.3,0.2,0.6,0.2h0.2c0.1,0,0.3,0,0.4,0c0.1,0,0.2,0,0.3,0
	c0.1,0,0.2-0.1,0.3-0.1C133,48.9,133.1,48.9,133.1,48.8z M133.8,49.6h-0.7v-0.4c-0.1,0.3-0.5,0.5-1.2,0.5c-0.6,0-0.9-0.1-1.2-0.3
	c-0.2-0.2-0.3-0.5-0.3-1c0-0.5,0.1-0.8,0.3-0.9c0.2-0.2,0.6-0.3,1.2-0.3h1.2v-0.7c0-0.2-0.1-0.4-0.2-0.5s-0.4-0.1-0.8-0.1
	c-0.4,0-0.9,0-1.4,0.1v-0.6c0.6-0.1,1.1-0.1,1.5-0.1c0.7,0,1.1,0.1,1.3,0.2c0.2,0.2,0.3,0.5,0.3,1L133.8,49.6L133.8,49.6z
	 M129.6,48.2v0.3c0,0.4-0.2,0.7-0.5,0.9c-0.3,0.2-0.7,0.3-1.3,0.3c-0.4,0-0.9,0-1.4-0.1V49c0.7,0.1,1.1,0.2,1.4,0.2
	c0.3,0,0.6,0,0.8-0.1s0.3-0.2,0.3-0.4v-0.4c0-0.2-0.1-0.3-0.2-0.4c-0.1-0.1-0.3-0.1-0.6-0.1h-0.5c-0.4,0-0.7-0.1-1-0.3
	c-0.2-0.2-0.3-0.4-0.3-0.7v-0.4c0-0.6,0.6-1,1.8-1c0.1,0,0.5,0,1.2,0.1v0.5c-0.5-0.1-0.9-0.1-1.3-0.1c-0.4,0-0.7,0-0.8,0.1
	s-0.2,0.2-0.2,0.4v0.3c0,0.3,0.3,0.4,0.7,0.4h0.5C129.2,47.2,129.6,47.5,129.6,48.2z M122.5,49.6h-0.8v-2.9c0-0.1,0-0.2,0-0.3
	c0-0.1-0.1-0.1-0.1-0.2c-0.1-0.1-0.1-0.1-0.3-0.2c-0.1,0-0.3-0.1-0.5-0.1c-0.5,0-0.8,0.1-0.9,0.1c-0.1,0.1-0.2,0.3-0.2,0.5v2.9H119
	v-5.9h0.8V46c0.1-0.4,0.5-0.6,1.3-0.6c0.5,0,0.9,0.1,1.1,0.3c0.2,0.2,0.3,0.5,0.3,0.9L122.5,49.6L122.5,49.6z M118.2,49.6
	c-0.3,0-0.5,0.1-0.8,0.1c-0.5,0-0.9-0.1-1.1-0.3c-0.2-0.2-0.3-0.5-0.3-1V46h-0.9v-0.5h0.9v-1.3h0.8v1.3h1.5V46h-1.5v2.4
	c0,0.3,0.1,0.5,0.2,0.6s0.3,0.1,0.7,0.1c0.1,0,0.3,0,0.6-0.1L118.2,49.6L118.2,49.6L118.2,49.6z M113.7,48.4v-1.6
	c0-0.4-0.1-0.6-0.2-0.7c-0.1-0.1-0.4-0.1-0.9-0.1c-0.4,0-0.7,0-0.9,0.1s-0.2,0.3-0.2,0.7v1.6c0,0.2,0,0.3,0.1,0.4
	c0,0.1,0.1,0.2,0.2,0.2c0.1,0,0.2,0.1,0.3,0.1c0.1,0,0.3,0,0.5,0s0.4,0,0.5,0c0.1,0,0.2,0,0.3-0.1c0.1-0.1,0.2-0.1,0.2-0.2
	C113.7,48.7,113.7,48.6,113.7,48.4z M114.5,46.9v1.4c0,0.3,0,0.5-0.1,0.6c-0.1,0.2-0.1,0.3-0.2,0.4c-0.1,0.1-0.2,0.2-0.4,0.2
	c-0.2,0.1-0.3,0.1-0.5,0.1c-0.2,0-0.4,0-0.6,0c-0.3,0-0.6,0-0.8,0c-0.2,0-0.4-0.1-0.6-0.2c-0.2-0.1-0.3-0.2-0.4-0.4
	c-0.1-0.2-0.1-0.4-0.1-0.8v-1.4c0-0.3,0-0.5,0.1-0.7c0.1-0.2,0.1-0.3,0.2-0.4c0.1-0.1,0.2-0.2,0.4-0.2c0.2-0.1,0.3-0.1,0.5-0.1
	c0.2,0,0.4,0,0.6,0c0.3,0,0.5,0,0.6,0c0.2,0,0.3,0,0.5,0.1c0.2,0.1,0.3,0.1,0.4,0.2s0.2,0.2,0.2,0.4
	C114.4,46.4,114.5,46.6,114.5,46.9z M108.9,48.4v-1.6c0-0.4-0.1-0.6-0.2-0.7c-0.1-0.1-0.4-0.1-0.9-0.1c-0.4,0-0.7,0-0.9,0.1
	s-0.2,0.3-0.2,0.7v1.6c0,0.2,0,0.3,0.1,0.4c0,0.1,0.1,0.2,0.2,0.2c0.1,0,0.2,0.1,0.3,0.1c0.1,0,0.3,0,0.5,0s0.4,0,0.5,0
	c0.1,0,0.2,0,0.3-0.1c0.1-0.1,0.2-0.1,0.2-0.2C108.9,48.7,108.9,48.6,108.9,48.4z M109.7,46.9v1.4c0,0.3,0,0.5-0.1,0.6
	c-0.1,0.2-0.1,0.3-0.2,0.4c-0.1,0.1-0.2,0.2-0.4,0.2c-0.2,0.1-0.3,0.1-0.5,0.1c-0.2,0-0.4,0-0.6,0c-0.3,0-0.6,0-0.8,0
	c-0.2,0-0.4-0.1-0.6-0.2c-0.2-0.1-0.3-0.2-0.4-0.4c-0.1-0.2-0.1-0.4-0.1-0.8v-1.4c0-0.3,0-0.5,0.1-0.7c0.1-0.2,0.1-0.3,0.2-0.4
	c0.1-0.1,0.2-0.2,0.4-0.2c0.2-0.1,0.3-0.1,0.5-0.1c0.2,0,0.4,0,0.6,0s0.5,0,0.6,0s0.3,0,0.5,0.1c0.2,0.1,0.3,0.1,0.4,0.2
	s0.2,0.2,0.2,0.4C109.7,46.4,109.7,46.6,109.7,46.9z M104.8,49.6h-0.8v-2.9c0-0.1,0-0.2,0-0.3c0-0.1-0.1-0.1-0.1-0.2
	c-0.1-0.1-0.1-0.1-0.3-0.2c-0.1,0-0.3-0.1-0.5-0.1c-0.4,0-0.7,0.1-0.9,0.1s-0.2,0.3-0.2,0.5v2.9h-0.8v-2.9c0-0.1,0-0.2,0-0.3
	c0-0.1-0.1-0.1-0.1-0.2c-0.1-0.1-0.1-0.1-0.3-0.2c-0.1,0-0.3-0.1-0.5-0.1c-0.4,0-0.7,0-0.9,0.1c-0.1,0.1-0.2,0.3-0.2,0.5v2.9h-0.8
	v-4.1h0.8v0.5c0.1-0.4,0.5-0.6,1.4-0.6c0.7,0,1.1,0.2,1.3,0.6c0.1-0.2,0.2-0.3,0.5-0.4c0.3-0.1,0.6-0.1,0.9-0.1
	c0.5,0,0.9,0.1,1.1,0.3c0.2,0.2,0.3,0.5,0.3,0.9L104.8,49.6L104.8,49.6z M97.6,48.2v0.3c0,0.4-0.1,0.7-0.5,0.9s-0.7,0.3-1.3,0.3
	c-0.4,0-0.9,0-1.4-0.1V49c0.7,0.1,1.1,0.2,1.4,0.2c0.3,0,0.6,0,0.8-0.1s0.3-0.2,0.3-0.4v-0.4c0-0.2-0.1-0.3-0.2-0.4
	c-0.1-0.1-0.3-0.1-0.6-0.1h-0.5c-0.4,0-0.7-0.1-1-0.3c-0.2-0.2-0.3-0.4-0.3-0.7v-0.4c0-0.6,0.6-1,1.8-1c0.1,0,0.5,0,1.2,0.1v0.5
	C97,46,96.5,46,96.2,46c-0.4,0-0.7,0-0.8,0.1s-0.2,0.2-0.2,0.4v0.3c0,0.3,0.3,0.4,0.7,0.4h0.5C97.2,47.2,97.6,47.5,97.6,48.2z
	 M90.8,48.2v0.3c0,0.4-0.1,0.7-0.5,0.9c-0.3,0.2-0.7,0.3-1.3,0.3c-0.4,0-0.9,0-1.4-0.1V49c0.7,0.1,1.1,0.2,1.4,0.2
	c0.3,0,0.6,0,0.8-0.1s0.3-0.2,0.3-0.4v-0.4c0-0.2-0.1-0.3-0.2-0.4c-0.1-0.1-0.3-0.1-0.6-0.1h-0.5c-0.4,0-0.7-0.1-1-0.3
	c-0.2-0.2-0.3-0.4-0.3-0.7v-0.4c0-0.6,0.6-1,1.8-1c0.1,0,0.5,0,1.2,0.1v0.5C90.1,46,89.7,46,89.3,46c-0.4,0-0.7,0-0.8,0.1
	c-0.1,0.1-0.2,0.2-0.2,0.4v0.3c0,0.3,0.3,0.4,0.7,0.4h0.5C90.4,47.2,90.8,47.5,90.8,48.2z M86.8,48.2v0.3c0,0.4-0.1,0.7-0.5,0.9
	s-0.7,0.3-1.3,0.3c-0.4,0-0.9,0-1.4-0.1V49c0.7,0.1,1.1,0.2,1.4,0.2c0.3,0,0.6,0,0.8-0.1c0.2-0.1,0.3-0.2,0.3-0.4v-0.4
	c0-0.2-0.1-0.3-0.2-0.4c-0.1-0.1-0.3-0.1-0.6-0.1h-0.5c-0.4,0-0.7-0.1-1-0.3c-0.2-0.2-0.3-0.4-0.3-0.7v-0.4c0-0.6,0.6-1,1.8-1
	c0.1,0,0.5,0,1.2,0.1v0.5C86.1,46,85.7,46,85.3,46c-0.4,0-0.7,0-0.8,0.1c-0.1,0.1-0.2,0.2-0.2,0.4v0.3c0,0.3,0.3,0.4,0.7,0.4h0.5
	C86.3,47.2,86.8,47.5,86.8,48.2z M81.9,47.2v-0.6c0-0.2-0.1-0.4-0.2-0.5C81.5,46,81.2,46,80.9,46c-0.3,0-0.6,0-0.7,0.1
	s-0.2,0.3-0.2,0.5v0.6H81.9z M82.6,47.7h-2.7v0.6c0,0.3,0.1,0.5,0.3,0.6c0.2,0.1,0.5,0.2,0.9,0.2c0.4,0,0.8-0.1,1.4-0.2v0.6
	c-0.5,0.1-1,0.2-1.5,0.2c-1.2,0-1.9-0.4-1.9-1.2v-1.6c0-0.5,0.1-0.9,0.4-1.1c0.3-0.2,0.7-0.3,1.4-0.3c0.6,0,1,0.1,1.3,0.3
	c0.3,0.2,0.4,0.6,0.4,1.1V47.7L82.6,47.7z M78,49.6h-0.8v-2.9c0-0.1,0-0.2,0-0.3c0-0.1-0.1-0.1-0.1-0.2c-0.1-0.1-0.1-0.1-0.3-0.2
	c-0.1,0-0.3-0.1-0.5-0.1c-0.4,0-0.7,0.1-0.9,0.1c-0.1,0.1-0.2,0.3-0.2,0.5v2.9h-0.8v-4.1h0.8v0.5c0.1-0.4,0.5-0.6,1.3-0.6
	c0.5,0,0.9,0.1,1.1,0.3c0.2,0.2,0.3,0.5,0.3,0.9C78,46.7,78,49.6,78,49.6z M73.2,49.6h-0.8v-4.1h0.8V49.6z M73.2,44.9h-0.8v-0.8h0.8
	V44.9z M71.4,48.2v0.3c0,0.4-0.1,0.7-0.5,0.9s-0.7,0.3-1.3,0.3c-0.4,0-0.9,0-1.4-0.1V49c0.7,0.1,1.1,0.2,1.4,0.2
	c0.3,0,0.6,0,0.8-0.1s0.3-0.2,0.3-0.4v-0.4c0-0.2-0.1-0.3-0.2-0.4c-0.1-0.1-0.3-0.1-0.6-0.1h-0.5c-0.4,0-0.7-0.1-1-0.3
	c-0.2-0.2-0.3-0.4-0.3-0.7v-0.4c0-0.6,0.6-1,1.8-1c0.1,0,0.5,0,1.2,0.1v0.5C70.7,46,70.3,46,69.9,46c-0.4,0-0.7,0-0.8,0.1
	c-0.1,0.1-0.2,0.2-0.2,0.4v0.3c0,0.3,0.3,0.4,0.7,0.4h0.5C70.9,47.2,71.4,47.5,71.4,48.2z M67.1,49.6h-0.8v-0.5
	c-0.1,0.4-0.5,0.6-1.3,0.6c-0.5,0-0.9-0.1-1.1-0.3s-0.3-0.5-0.3-0.9v-3h0.8v2.9c0,0.1,0,0.2,0,0.3c0,0.1,0.1,0.1,0.1,0.2
	c0.1,0.1,0.1,0.1,0.3,0.2c0.1,0,0.3,0.1,0.5,0.1c0.4,0,0.7,0,0.9-0.1c0.2-0.1,0.2-0.2,0.2-0.4v-3.1h0.8L67.1,49.6L67.1,49.6z
	 M61.6,48.4v-1.6c0-0.3-0.1-0.6-0.2-0.7C61.2,46,60.9,46,60.5,46c-0.4,0-0.7,0.1-0.8,0.2c-0.2,0.1-0.2,0.3-0.2,0.6v1.6
	c0,0.3,0.1,0.6,0.2,0.7c0.2,0.1,0.4,0.1,0.8,0.1c0.4,0,0.7-0.1,0.9-0.1C61.6,48.9,61.6,48.7,61.6,48.4z M62.4,46.6v1.7
	c0,0.2,0,0.5-0.1,0.6c-0.1,0.2-0.2,0.3-0.3,0.4c-0.1,0.1-0.3,0.2-0.4,0.2c-0.2,0.1-0.3,0.1-0.5,0.1c-0.2,0-0.3,0-0.6,0
	c-0.3,0-0.5,0-0.7,0c-0.2,0-0.4-0.1-0.6-0.2c-0.2-0.1-0.3-0.2-0.4-0.4c-0.1-0.2-0.1-0.5-0.1-0.8v-4.5h0.8V45c0,0.1,0,0.3,0,0.5
	c0,0.2,0,0.4,0,0.5c0-0.1,0.1-0.2,0.3-0.3c0.2-0.1,0.5-0.1,0.9-0.1C61.8,45.5,62.4,45.8,62.4,46.6z M55.2,46.1h-0.4
	c-0.3,0-0.6,0-0.8,0.1c-0.2,0.1-0.2,0.3-0.2,0.5v2.9H53v-4.1h0.7v0.7c0-0.2,0.1-0.4,0.4-0.5c0.2-0.1,0.5-0.2,0.7-0.2h0.4V46.1
	L55.2,46.1z M51.7,49.6h-0.8v-0.5c-0.1,0.4-0.5,0.6-1.3,0.6c-0.5,0-0.9-0.1-1.1-0.3s-0.3-0.5-0.3-0.9v-3H49v2.9c0,0.1,0,0.2,0,0.3
	c0,0.1,0.1,0.1,0.1,0.2c0.1,0.1,0.1,0.1,0.3,0.2c0.1,0,0.3,0.1,0.5,0.1c0.4,0,0.7,0,0.9-0.1c0.2-0.1,0.2-0.2,0.2-0.4v-3.1h0.8
	L51.7,49.6L51.7,49.6z M46.3,48.4v-1.6c0-0.4-0.1-0.6-0.2-0.7C45.9,46,45.6,46,45.2,46c-0.4,0-0.7,0-0.9,0.1s-0.2,0.3-0.2,0.7v1.6
	c0,0.2,0,0.3,0.1,0.4c0,0.1,0.1,0.2,0.2,0.2c0.1,0,0.2,0.1,0.3,0.1c0.1,0,0.3,0,0.5,0c0.2,0,0.4,0,0.5,0c0.1,0,0.2,0,0.3-0.1
	c0.1-0.1,0.2-0.1,0.2-0.2C46.2,48.7,46.3,48.6,46.3,48.4z M47,46.9v1.4c0,0.3,0,0.5-0.1,0.6c-0.1,0.2-0.1,0.3-0.2,0.4
	c-0.1,0.1-0.2,0.2-0.4,0.2c-0.2,0.1-0.3,0.1-0.5,0.1c-0.2,0-0.4,0-0.6,0c-0.3,0-0.6,0-0.8,0c-0.2,0-0.4-0.1-0.6-0.2
	c-0.2-0.1-0.3-0.2-0.4-0.4s-0.1-0.4-0.1-0.8v-1.4c0-0.3,0-0.5,0.1-0.7c0.1-0.2,0.1-0.3,0.2-0.4c0.1-0.1,0.2-0.2,0.4-0.2
	c0.2-0.1,0.3-0.1,0.5-0.1c0.2,0,0.4,0,0.6,0s0.5,0,0.6,0s0.3,0,0.5,0.1c0.2,0.1,0.3,0.1,0.4,0.2c0.1,0.1,0.2,0.2,0.2,0.4
	C47,46.4,47,46.6,47,46.9z M42.7,45.5l-2,5.8h-0.8l0.6-1.7L39,45.5h0.8l1.1,3.3h0l1-3.3L42.7,45.5L42.7,45.5z M34.9,47.2v-0.6
	c0-0.2-0.1-0.4-0.2-0.5C34.5,46,34.3,46,33.9,46c-0.3,0-0.6,0-0.7,0.1c-0.2,0.1-0.2,0.3-0.2,0.5v0.6H34.9z M35.7,47.7h-2.7v0.6
	c0,0.3,0.1,0.5,0.3,0.6c0.2,0.1,0.5,0.2,0.9,0.2c0.4,0,0.8-0.1,1.4-0.2v0.6c-0.5,0.1-1,0.2-1.5,0.2c-1.2,0-1.9-0.4-1.9-1.2v-1.6
	c0-0.5,0.1-0.9,0.4-1.1c0.3-0.2,0.7-0.3,1.4-0.3c0.6,0,1,0.1,1.3,0.3c0.3,0.2,0.4,0.6,0.4,1.1V47.7z M28.8,49.6H28v-5.9h0.8V49.6z
	 M31.7,49.6h-0.9l-1.9-2.2l1.7-1.8h0.9l-1.8,1.8L31.7,49.6z M26,48.8v-1.1h-1.2c-0.3,0-0.6,0-0.7,0.1c-0.1,0.1-0.1,0.3-0.1,0.6
	c0,0.3,0,0.5,0.1,0.6c0.1,0.1,0.3,0.2,0.6,0.2h0.1c0.1,0,0.3,0,0.4,0c0.1,0,0.2,0,0.3,0c0.1,0,0.2-0.1,0.3-0.1
	C25.9,48.9,26,48.9,26,48.8z M26.7,49.6H26v-0.4c-0.1,0.3-0.5,0.5-1.2,0.5c-0.6,0-0.9-0.1-1.2-0.3c-0.2-0.2-0.3-0.5-0.3-1
	c0-0.5,0.1-0.8,0.3-0.9c0.2-0.2,0.6-0.3,1.2-0.3H26v-0.7c0-0.2-0.1-0.4-0.2-0.5S25.4,46,25,46c-0.4,0-0.9,0-1.4,0.1v-0.6
	c0.6-0.1,1.1-0.1,1.5-0.1c0.7,0,1.1,0.1,1.3,0.2s0.3,0.5,0.3,1L26.7,49.6L26.7,49.6L26.7,49.6z M22.2,49.6h-0.8v-2.9
	c0-0.1,0-0.2,0-0.3s-0.1-0.1-0.1-0.2c-0.1-0.1-0.1-0.1-0.3-0.2c-0.1,0-0.3-0.1-0.5-0.1c-0.4,0-0.7,0.1-0.9,0.1
	c-0.1,0.1-0.2,0.3-0.2,0.5v2.9h-0.8v-2.9c0-0.1,0-0.2,0-0.3c0-0.1-0.1-0.1-0.1-0.2c-0.1-0.1-0.1-0.1-0.3-0.2c-0.1,0-0.3-0.1-0.5-0.1
	c-0.4,0-0.7,0-0.9,0.1c-0.1,0.1-0.2,0.3-0.2,0.5v2.9H16v-4.1h0.8v0.5c0.1-0.4,0.5-0.6,1.4-0.6c0.7,0,1.1,0.2,1.3,0.6
	c0.1-0.2,0.2-0.3,0.5-0.4c0.3-0.1,0.6-0.1,0.9-0.1c0.5,0,0.9,0.1,1.1,0.3c0.2,0.2,0.3,0.5,0.3,0.9L22.2,49.6L22.2,49.6L22.2,49.6z"
	/>
</svg>
